<svg xmlns="http://www.w3.org/2000/svg" xmlns:xlink="http://www.w3.org/1999/xlink" preserveAspectRatio="xMidYMid" width="28" height="43" viewBox="0 0 28 43">
  <defs>
    <style>

      .cls-2 {
        fill: #ffffff;
      }
    </style>
  </defs>
  <path d="M12.556,42.474 C12.556,42.474 12.556,2.655 12.556,2.655 C12.556,2.655 1.034,14.917 1.034,14.917 C0.742,15.223 0.463,15.214 0.181,14.898 C-0.098,14.584 -0.091,14.082 0.200,13.777 C0.200,13.777 13.133,0.226 13.133,0.226 C13.133,0.225 13.136,0.223 13.139,0.222 C13.139,0.222 13.145,0.215 13.145,0.215 C13.166,0.191 13.197,0.181 13.221,0.161 C13.271,0.120 13.316,0.078 13.375,0.052 C13.553,-0.027 13.752,-0.027 13.926,0.052 C13.985,0.078 14.034,0.120 14.083,0.161 C14.107,0.181 14.135,0.191 14.156,0.215 C14.156,0.215 14.159,0.222 14.159,0.222 C14.163,0.223 14.159,0.225 14.159,0.226 C14.159,0.226 27.083,13.777 27.083,13.777 C27.371,14.082 27.356,14.584 27.077,14.898 C26.933,15.059 26.697,15.142 26.504,15.142 C26.323,15.142 26.047,15.066 25.906,14.917 C25.906,14.917 14.018,2.655 14.018,2.655 C14.018,2.655 14.018,42.474 14.018,42.474 C14.018,42.912 13.690,43.267 13.286,43.267 C12.881,43.267 12.556,42.912 12.556,42.474 " id="path-1" class="cls-2" fill-rule="evenodd"/>
</svg>
