<svg xmlns="http://www.w3.org/2000/svg" xmlns:xlink="http://www.w3.org/1999/xlink" preserveAspectRatio="xMidYMid" width="85" height="86" viewBox="0 0 85 86">
  <defs>
    <style>

      .cls-2 {
        fill: #ffffff;
      }
    </style>
  </defs>
  <path d="M42.092,85.031 C53.336,85.031 63.905,80.607 71.857,72.578 C79.806,64.548 84.183,53.875 84.183,42.521 C84.183,31.167 79.806,20.493 71.857,12.464 C63.905,4.434 53.336,0.011 42.092,0.011 C30.848,0.011 20.279,4.434 12.333,12.464 C4.382,20.493 0.004,31.167 0.004,42.521 C0.004,53.875 4.382,64.548 12.333,72.578 C20.279,80.607 30.848,85.031 42.092,85.031 ZM14.191,14.343 C21.646,6.815 31.553,2.669 42.092,2.669 C52.631,2.669 62.541,6.815 69.996,14.343 C77.448,21.869 81.553,31.878 81.553,42.521 C81.553,53.165 77.448,63.173 69.996,70.698 C62.541,78.228 52.631,82.373 42.092,82.373 C31.553,82.373 21.646,78.228 14.191,70.698 C6.739,63.173 2.631,53.165 2.631,42.521 C2.631,31.878 6.739,21.869 14.191,14.343 ZM37.847,55.290 C37.847,55.290 49.621,43.397 49.621,43.397 C49.621,43.397 37.847,31.504 37.847,31.504 C37.329,30.986 37.329,30.145 37.847,29.627 C38.359,29.107 39.192,29.107 39.704,29.627 C39.704,29.627 52.232,42.276 52.232,42.276 C52.533,42.583 52.637,42.999 52.582,43.397 C52.637,43.796 52.533,44.209 52.232,44.516 C52.232,44.516 39.704,57.167 39.704,57.167 C39.447,57.427 39.110,57.557 38.775,57.557 C38.438,57.557 38.101,57.427 37.847,57.167 C37.329,56.649 37.329,55.808 37.847,55.290 Z" id="path-1" class="cls-2" fill-rule="evenodd"/>
</svg>
