<svg xmlns="http://www.w3.org/2000/svg" xmlns:xlink="http://www.w3.org/1999/xlink" preserveAspectRatio="xMidYMid" width="76" height="75" viewBox="0 0 76 75">
  <defs>
    <style>

      .cls-2 {
        fill: #ffffff;
      }
    </style>
  </defs>
  <path d="M74.153,17.777 C74.153,17.777 52.419,17.777 52.419,17.777 C51.714,17.777 51.141,17.208 51.141,16.506 C51.141,15.805 51.714,15.236 52.419,15.236 C52.419,15.236 74.153,15.236 74.153,15.236 C74.861,15.236 75.434,15.805 75.434,16.506 C75.434,17.208 74.861,17.777 74.153,17.777 ZM72.874,29.206 C73.583,29.206 74.153,29.775 74.153,30.476 C74.153,31.177 73.583,31.746 72.874,31.746 C72.874,31.746 51.141,31.746 51.141,31.746 C50.436,31.746 49.863,31.177 49.863,30.476 C49.863,29.775 50.436,29.206 51.141,29.206 C51.141,29.206 72.874,29.206 72.874,29.206 ZM51.141,49.525 C51.141,49.525 51.141,62.991 51.141,62.991 C51.141,69.293 45.982,74.421 39.637,74.421 C39.637,74.421 11.512,74.421 11.512,74.421 C5.166,74.421 0.004,69.293 0.004,62.991 C0.004,62.991 0.004,49.525 0.004,49.525 C0.004,43.489 5.751,38.871 11.381,38.191 C7.527,34.147 5.117,28.489 5.117,22.222 C5.117,9.967 14.295,-0.004 25.573,-0.004 C36.853,-0.004 46.028,9.967 46.028,22.222 C46.028,28.529 43.586,34.218 39.688,38.267 C45.355,39.167 51.141,43.761 51.141,49.525 ZM43.471,22.222 C43.471,11.367 35.443,2.537 25.573,2.537 C15.705,2.537 7.674,11.367 7.674,22.222 C7.674,33.076 15.705,41.905 25.573,41.905 C35.443,41.905 43.471,33.076 43.471,22.222 ZM37.718,40.636 C37.521,40.636 37.341,40.584 37.174,40.505 C33.874,42.984 29.880,44.446 25.573,44.446 C21.137,44.446 17.039,42.887 13.684,40.271 C13.453,40.495 13.138,40.636 12.790,40.636 C8.060,40.636 2.561,44.518 2.561,49.525 C2.561,49.525 2.561,62.991 2.561,62.991 C2.561,67.893 6.576,71.880 11.512,71.880 C11.512,71.880 39.637,71.880 39.637,71.880 C44.572,71.880 48.584,67.893 48.584,62.991 C48.584,62.991 48.584,49.525 48.584,49.525 C48.584,44.602 42.641,40.636 37.718,40.636 ZM56.257,43.176 C56.257,43.176 74.153,43.176 74.153,43.176 C74.861,43.176 75.434,43.744 75.434,44.446 C75.434,45.147 74.861,45.715 74.153,45.715 C74.153,45.715 56.257,45.715 56.257,45.715 C55.549,45.715 54.979,45.147 54.979,44.446 C54.979,43.744 55.549,43.176 56.257,43.176 ZM56.257,57.145 C56.257,57.145 72.874,57.145 72.874,57.145 C73.583,57.145 74.153,57.713 74.153,58.415 C74.153,59.117 73.583,59.685 72.874,59.685 C72.874,59.685 56.257,59.685 56.257,59.685 C55.549,59.685 54.979,59.117 54.979,58.415 C54.979,57.713 55.549,57.145 56.257,57.145 Z" id="path-1" class="cls-2" fill-rule="evenodd"/>
</svg>
