<svg xmlns="http://www.w3.org/2000/svg" xmlns:xlink="http://www.w3.org/1999/xlink" preserveAspectRatio="xMidYMid" width="80" height="69" viewBox="0 0 80 69">
  <defs>
    <style>

      .cls-2 {
        fill: #ffffff;
      }
    </style>
  </defs>
  <path d="M78.046,66.474 C77.099,68.099 75.413,69.069 73.546,69.069 C73.546,69.069 5.240,69.069 5.240,69.069 C3.373,69.069 1.687,68.099 0.737,66.474 C-0.213,64.850 -0.241,62.893 0.657,61.239 C0.657,61.239 10.819,42.582 10.819,42.582 C11.735,40.894 13.492,39.843 15.399,39.843 C15.399,39.843 24.926,39.843 24.926,39.843 C25.649,39.843 26.238,40.438 26.238,41.172 C26.238,41.906 25.649,42.500 24.926,42.500 C24.926,42.500 15.399,42.500 15.399,42.500 C14.451,42.500 13.578,43.022 13.121,43.861 C13.121,43.861 2.962,62.520 2.962,62.520 C2.515,63.342 2.527,64.315 3.002,65.123 C3.474,65.931 4.311,66.411 5.240,66.411 C5.240,66.411 73.546,66.411 73.546,66.411 C74.472,66.411 75.308,65.931 75.780,65.123 C76.256,64.315 76.271,63.342 75.823,62.520 C75.823,62.520 65.662,43.861 65.662,43.861 C65.205,43.022 64.331,42.500 63.384,42.500 C63.384,42.500 53.860,42.500 53.860,42.500 C53.133,42.500 52.545,41.906 52.545,41.172 C52.545,40.438 53.133,39.843 53.860,39.843 C53.860,39.843 63.384,39.843 63.384,39.843 C65.291,39.843 67.047,40.894 67.967,42.582 C67.967,42.582 78.125,61.239 78.125,61.239 C79.027,62.893 78.996,64.850 78.046,66.474 ZM39.361,56.557 C39.361,56.557 38.346,55.294 38.346,55.294 C37.635,54.414 20.981,33.580 20.981,19.950 C20.981,8.944 29.239,-0.009 39.394,-0.009 C49.504,-0.009 57.762,8.942 57.808,19.942 C57.863,33.580 41.096,54.417 40.381,55.298 C40.381,55.298 39.361,56.557 39.361,56.557 ZM39.394,2.649 C30.689,2.649 23.608,10.409 23.608,19.950 C23.608,30.788 35.731,47.530 39.370,52.307 C43.021,47.536 55.221,30.792 55.175,19.955 C55.135,10.413 48.057,2.649 39.394,2.649 ZM32.816,17.262 C32.816,13.598 35.768,10.618 39.394,10.618 C43.018,10.618 45.970,13.598 45.970,17.262 C45.970,20.922 43.018,23.903 39.394,23.903 C35.768,23.903 32.816,20.922 32.816,17.262 ZM39.394,21.246 C41.568,21.246 43.340,19.460 43.340,17.262 C43.340,15.064 41.568,13.276 39.394,13.276 C37.215,13.276 35.446,15.064 35.446,17.262 C35.446,19.460 37.215,21.246 39.394,21.246 Z" id="path-1" class="cls-2" fill-rule="evenodd"/>
</svg>
