<svg xmlns="http://www.w3.org/2000/svg" xmlns:xlink="http://www.w3.org/1999/xlink" preserveAspectRatio="xMidYMid" width="82" height="83" viewBox="0 0 82 83">
  <defs>
    <style>

      .cls-2 {
        fill: #ffffff;
      }
    </style>
  </defs>
  <path d="M31.852,64.393 C39.874,64.393 47.443,61.418 53.331,55.986 C53.331,55.986 79.035,81.948 79.035,81.948 C79.292,82.208 79.626,82.336 79.966,82.336 C80.304,82.336 80.638,82.208 80.895,81.948 C81.407,81.428 81.407,80.588 80.895,80.068 C80.895,80.068 55.174,54.092 55.174,54.092 C66.785,41.482 66.552,21.700 54.395,9.424 C48.372,3.342 40.365,-0.007 31.852,-0.007 C23.337,-0.007 15.330,3.342 9.309,9.424 C-3.121,21.979 -3.121,42.407 9.309,54.961 C15.330,61.042 23.337,64.393 31.852,64.393 ZM11.167,11.303 C16.694,5.723 24.042,2.650 31.852,2.650 C39.663,2.650 47.011,5.723 52.537,11.303 C63.938,22.821 63.938,41.563 52.537,53.082 C47.011,58.662 39.663,61.735 31.852,61.735 C24.042,61.735 16.694,58.662 11.167,53.082 C-0.236,41.563 -0.236,22.821 11.167,11.303 Z" id="path-1" class="cls-2" fill-rule="evenodd"/>
</svg>
