<svg xmlns="http://www.w3.org/2000/svg" xmlns:xlink="http://www.w3.org/1999/xlink" preserveAspectRatio="xMidYMid" width="72" height="73" viewBox="0 0 72 73">
  <defs>
    <style>

      .cls-2 {
        fill: #ffffff;
      }
    </style>
  </defs>
  <path d="M8.606,60.094 C8.636,60.110 8.673,60.109 8.707,60.122 C9.295,60.816 9.908,61.433 10.552,62.086 C17.351,68.961 26.385,72.684 35.998,72.684 C35.998,72.684 36.001,72.684 36.001,72.684 C36.001,72.684 36.004,72.684 36.004,72.684 C46.883,72.684 56.643,67.830 63.246,60.084 C63.298,60.068 63.347,60.086 63.396,60.063 C63.727,59.895 63.920,59.594 63.979,59.251 C68.981,52.997 71.988,45.053 71.985,36.399 C71.985,27.960 69.162,19.966 63.972,13.504 C63.905,13.177 63.715,12.882 63.396,12.720 C63.362,12.703 63.326,12.705 63.292,12.692 C62.703,12.000 62.093,11.320 61.447,10.667 C54.651,3.790 45.614,0.004 36.001,0.004 C26.385,0.004 17.351,3.790 10.552,10.667 C9.908,11.320 9.295,12.000 8.707,12.694 C8.673,12.707 8.636,12.705 8.606,12.722 C8.284,12.884 8.094,13.181 8.023,13.507 C2.833,19.970 0.013,27.969 0.013,36.409 C0.013,44.849 2.836,52.848 8.023,59.308 C8.094,59.635 8.284,59.933 8.606,60.094 ZM9.102,15.796 C10.472,17.632 13.403,20.718 18.798,23.057 C17.756,26.708 17.075,30.788 16.971,35.274 C16.971,35.274 2.282,35.274 2.282,35.274 C2.508,28.147 4.884,21.401 9.102,15.796 ZM34.198,2.318 C34.404,2.307 34.753,2.305 34.753,2.299 C34.753,2.299 34.753,23.920 34.753,23.920 C29.150,23.808 24.886,22.898 21.517,21.701 C25.444,10.165 32.914,3.417 34.198,2.318 ZM37.675,2.318 C38.959,3.417 46.368,10.165 50.292,21.703 C46.865,22.926 42.598,23.812 36.994,23.920 C36.994,23.920 36.994,2.299 36.994,2.299 C36.994,2.305 37.469,2.307 37.675,2.318 ZM69.717,35.274 C69.717,35.274 55.025,35.274 55.025,35.274 C54.923,30.788 54.246,26.708 53.204,23.057 C58.599,20.718 61.526,17.632 62.897,15.796 C67.114,21.401 69.490,28.147 69.717,35.274 ZM62.887,57.008 C61.511,55.169 58.587,52.092 53.204,49.760 C54.246,46.107 54.923,42.028 55.025,37.542 C55.025,37.542 69.717,37.542 69.717,37.542 C69.478,44.836 66.977,51.558 62.887,57.008 ZM37.675,70.500 C37.469,70.511 36.994,70.510 36.994,70.515 C36.994,70.515 36.994,48.897 36.994,48.897 C42.598,49.008 46.923,49.918 50.292,51.116 C46.365,62.655 38.953,69.404 37.675,70.500 ZM34.198,70.498 C32.914,69.400 25.444,62.651 21.517,51.114 C24.947,49.890 29.150,49.004 34.753,48.897 C34.753,48.897 34.753,70.517 34.753,70.517 C34.753,70.510 34.404,70.510 34.198,70.498 ZM34.753,46.629 C29.150,46.737 24.512,47.647 20.867,48.929 C19.895,45.504 19.316,41.701 19.215,37.542 C19.215,37.542 34.753,37.542 34.753,37.542 C34.753,37.542 34.753,46.629 34.753,46.629 ZM36.994,46.629 C36.994,46.629 36.994,37.542 36.994,37.542 C36.994,37.542 52.784,37.542 52.784,37.542 C52.686,41.701 51.981,45.504 51.006,48.929 C47.364,47.647 42.598,46.737 36.994,46.629 ZM52.784,35.274 C52.784,35.274 36.994,35.274 36.994,35.274 C36.994,35.274 36.994,26.186 36.994,26.186 C42.598,26.081 47.364,25.171 51.006,23.890 C51.981,27.314 52.686,31.115 52.784,35.274 ZM34.753,26.186 C34.753,26.186 34.753,35.274 34.753,35.274 C34.753,35.274 19.215,35.274 19.215,35.274 C19.316,31.115 19.895,27.314 20.867,23.890 C24.512,25.171 29.150,26.081 34.753,26.186 ZM16.971,37.542 C17.075,42.028 17.756,46.107 18.798,49.760 C13.400,52.098 10.472,55.184 9.102,57.021 C4.884,51.417 2.512,44.668 2.282,37.542 C2.282,37.542 16.971,37.542 16.971,37.542 ZM10.574,58.841 C11.539,57.435 14.154,54.335 19.488,51.962 C22.504,60.885 27.516,66.998 30.538,70.095 C23.601,68.961 17.204,65.672 12.137,60.547 C11.591,59.995 11.073,59.423 10.574,58.841 ZM41.463,70.090 C44.489,66.993 49.498,60.879 52.514,51.960 C54.194,52.704 55.564,53.500 56.662,54.252 C59.282,56.053 60.738,57.850 61.416,58.829 C56.358,64.684 49.372,68.782 41.463,70.090 ZM61.425,13.976 C60.460,15.379 57.848,18.480 52.514,20.853 C49.495,11.931 44.483,5.818 41.460,2.721 C48.397,3.857 54.795,7.144 59.862,12.269 C60.407,12.820 60.922,13.394 61.425,13.976 ZM30.538,2.721 C27.516,5.820 22.504,11.933 19.485,20.855 C17.808,20.113 16.435,19.316 15.340,18.564 C12.707,16.755 11.248,14.948 10.577,13.972 C11.079,13.390 11.591,12.820 12.137,12.269 C17.204,7.144 23.601,3.857 30.538,2.721 Z" id="path-1" class="cls-2" fill-rule="evenodd"/>
</svg>
