<svg xmlns="http://www.w3.org/2000/svg" xmlns:xlink="http://www.w3.org/1999/xlink" preserveAspectRatio="xMidYMid" width="84" height="85" viewBox="0 0 84 85">
  <defs>
    <style>

      .cls-2 {
        fill: #ffffff;
      }
    </style>
  </defs>
  <path d="M45.313,12.606 C45.899,13.264 45.877,14.276 45.246,14.909 C44.611,15.544 43.594,15.564 42.941,14.967 C42.941,14.967 3.722,53.994 3.722,53.994 C3.207,54.512 3.207,55.459 3.728,55.981 C3.728,55.981 7.919,60.179 7.919,60.179 C9.807,58.985 11.898,58.341 13.927,58.341 C20.113,58.341 25.143,63.380 25.143,69.577 C25.143,71.764 24.515,73.866 23.350,75.637 C23.350,75.637 27.501,79.797 27.501,79.797 C28.022,80.319 28.966,80.317 29.487,79.797 C29.487,79.797 41.374,67.889 41.374,67.889 C42.027,67.233 43.085,67.233 43.741,67.889 C44.394,68.544 44.394,69.607 43.741,70.260 C43.741,70.260 31.853,82.171 31.853,82.171 C30.943,83.082 29.720,83.539 28.494,83.539 C27.268,83.539 26.044,83.082 25.134,82.171 C25.134,82.171 19.944,76.969 19.944,76.969 C19.316,76.339 19.288,75.326 19.883,74.663 C21.115,73.286 21.799,71.482 21.799,69.577 C21.799,65.231 18.268,61.696 13.927,61.696 C12.201,61.696 10.374,62.398 8.780,63.675 C8.112,64.208 7.156,64.154 6.552,63.551 C6.552,63.551 1.362,58.352 1.362,58.352 C0.476,57.467 -0.008,56.271 -0.008,54.985 C-0.008,53.698 0.476,52.502 1.362,51.618 C1.362,51.618 41.414,11.753 41.414,11.753 C41.491,11.613 41.586,11.482 41.705,11.365 C41.828,11.243 41.960,11.143 42.104,11.069 C42.104,11.069 51.922,1.296 51.922,1.296 C53.682,-0.466 56.873,-0.472 58.639,1.299 C58.639,1.299 63.828,6.499 63.828,6.499 C64.432,7.104 64.484,8.067 63.951,8.733 C62.752,10.237 62.139,11.915 62.139,13.722 C62.139,18.069 65.671,21.607 70.011,21.607 C71.814,21.607 73.490,20.996 74.992,19.794 C75.658,19.261 76.617,19.312 77.224,19.919 C77.224,19.919 82.411,25.116 82.411,25.116 C83.294,26.001 83.781,27.199 83.781,28.485 C83.781,29.770 83.294,30.968 82.411,31.851 C82.411,31.851 70.860,43.424 70.860,43.424 C70.204,44.080 69.144,44.080 68.491,43.424 C67.838,42.769 67.838,41.706 68.491,41.053 C68.491,41.053 68.730,40.812 68.730,40.812 C68.730,40.812 68.662,40.740 68.662,40.740 C68.006,40.087 68.006,39.023 68.662,38.367 C69.312,37.714 70.373,37.714 71.029,38.367 C71.029,38.367 71.099,38.440 71.099,38.440 C71.099,38.440 80.044,29.478 80.044,29.478 C80.289,29.231 80.434,28.868 80.434,28.485 C80.434,28.099 80.289,27.736 80.044,27.489 C80.044,27.489 75.851,23.287 75.851,23.287 C74.064,24.400 72.102,24.961 70.011,24.961 C63.825,24.961 58.792,19.921 58.792,13.722 C58.792,11.628 59.353,9.665 60.466,7.873 C60.466,7.873 56.272,3.671 56.272,3.671 C55.751,3.153 54.807,3.153 54.286,3.671 C54.286,3.671 45.313,12.606 45.313,12.606 ZM54.617,24.298 C53.964,24.953 53.964,26.016 54.617,26.669 C54.617,26.669 56.965,29.026 56.965,29.026 C57.293,29.352 57.722,29.516 58.148,29.516 C58.577,29.516 59.006,29.352 59.334,29.026 C59.987,28.370 59.987,27.308 59.334,26.652 C59.334,26.652 56.983,24.298 56.983,24.298 C56.330,23.644 55.273,23.644 54.617,24.298 ZM61.667,31.362 C61.011,32.017 61.011,33.079 61.667,33.735 C61.667,33.735 64.018,36.089 64.018,36.089 C64.343,36.416 64.772,36.581 65.202,36.581 C65.628,36.581 66.057,36.416 66.385,36.089 C67.038,35.434 67.038,34.372 66.385,33.716 C66.385,33.716 64.034,31.362 64.034,31.362 C63.381,30.708 62.320,30.708 61.667,31.362 ZM47.566,17.234 C46.911,17.888 46.911,18.950 47.566,19.606 C47.566,19.606 49.915,21.960 49.915,21.960 C50.243,22.288 50.672,22.452 51.098,22.452 C51.527,22.452 51.956,22.288 52.281,21.960 C52.937,21.307 52.937,20.244 52.281,19.589 C52.281,19.589 49.933,17.234 49.933,17.234 C49.277,16.581 48.219,16.581 47.566,17.234 ZM72.368,58.160 C71.713,57.505 70.652,57.505 69.996,58.160 C69.996,58.160 65.321,62.845 65.321,62.845 C65.321,62.845 60.646,58.160 60.646,58.160 C59.994,57.505 58.936,57.505 58.280,58.160 C57.627,58.816 57.627,59.876 58.280,60.532 C58.280,60.532 62.955,65.216 62.955,65.216 C62.955,65.216 58.280,69.901 58.280,69.901 C57.627,70.557 57.627,71.619 58.280,72.273 C58.936,72.928 59.994,72.928 60.646,72.273 C60.646,72.273 65.321,67.590 65.321,67.590 C65.321,67.590 69.996,72.273 69.996,72.273 C70.324,72.602 70.753,72.764 71.182,72.764 C71.611,72.764 72.040,72.602 72.368,72.273 C73.021,71.619 73.021,70.557 72.368,69.901 C72.368,69.901 67.691,65.216 67.691,65.216 C67.691,65.216 72.368,60.532 72.368,60.532 C73.021,59.876 73.021,58.816 72.368,58.160 ZM83.738,65.216 C83.738,75.390 75.477,83.667 65.321,83.667 C55.172,83.667 46.907,75.390 46.907,65.216 C46.907,55.043 55.172,46.766 65.321,46.766 C75.477,46.766 83.738,55.043 83.738,65.216 ZM80.391,65.216 C80.391,56.892 73.631,50.121 65.321,50.121 C57.014,50.121 50.255,56.892 50.255,65.216 C50.255,73.541 57.014,80.314 65.321,80.314 C73.631,80.314 80.391,73.541 80.391,65.216 Z" id="path-1" class="cls-2" fill-rule="evenodd"/>
</svg>
