<svg xmlns="http://www.w3.org/2000/svg" xmlns:xlink="http://www.w3.org/1999/xlink" preserveAspectRatio="xMidYMid" width="54" height="37" viewBox="0 0 54 37">
  <defs>
    <style>

      .cls-2 {
        fill: #ffffff;
      }
    </style>
  </defs>
  <path d="M-0.002,35.867 C-0.002,35.867 -0.002,31.883 -0.002,31.883 C-0.002,31.883 52.609,31.883 52.609,31.883 C52.609,31.883 52.609,35.867 52.609,35.867 C52.609,35.867 -0.002,35.867 -0.002,35.867 ZM-0.002,15.941 C-0.002,15.941 52.609,15.941 52.609,15.941 C52.609,15.941 52.609,19.926 52.609,19.926 C52.609,19.926 -0.002,19.926 -0.002,19.926 C-0.002,19.926 -0.002,15.941 -0.002,15.941 ZM-0.002,0.001 C-0.002,0.001 52.609,0.001 52.609,0.001 C52.609,0.001 52.609,3.987 52.609,3.987 C52.609,3.987 -0.002,3.987 -0.002,3.987 C-0.002,3.987 -0.002,0.001 -0.002,0.001 Z" id="path-1" class="cls-2" fill-rule="evenodd"/>
</svg>
