<svg xmlns="http://www.w3.org/2000/svg" xmlns:xlink="http://www.w3.org/1999/xlink" preserveAspectRatio="xMidYMid" width="96" height="96" viewBox="0 0 96 96">
  <defs>
    <style>

      .cls-2 {
        fill: #ffffff;
      }
    </style>
  </defs>
  <path d="M78.492,36.366 C78.492,36.366 85.764,36.366 85.764,36.366 C85.764,36.366 85.764,42.183 85.764,42.183 C85.764,42.183 78.492,42.183 78.492,42.183 C78.492,42.183 78.492,36.366 78.492,36.366 ZM85.764,78.546 C85.764,78.546 78.492,78.546 78.492,78.546 C78.492,78.546 78.492,72.728 78.492,72.728 C78.492,72.728 85.764,72.728 85.764,72.728 C85.764,72.728 85.764,78.546 85.764,78.546 ZM78.492,53.820 C78.492,53.820 85.764,53.820 85.764,53.820 C85.764,53.820 85.764,61.093 85.764,61.093 C85.764,61.093 78.492,61.093 78.492,61.093 C78.492,61.093 78.492,53.820 78.492,53.820 ZM88.094,95.999 C88.094,95.999 7.832,95.999 7.832,95.999 C3.505,95.999 -0.012,92.528 -0.012,88.200 C-0.012,88.200 -0.012,26.515 -0.012,26.515 C-0.012,22.188 3.505,18.912 7.832,18.912 C7.832,18.912 24.702,18.912 24.702,18.912 C24.702,18.912 24.702,6.399 24.702,6.399 C24.702,2.901 27.645,0.003 31.141,0.003 C31.141,0.003 64.781,0.003 64.781,0.003 C68.281,0.003 71.223,2.901 71.223,6.399 C71.223,6.399 71.223,93.090 71.223,93.090 C71.223,93.090 88.094,93.090 88.094,93.090 C90.818,93.090 93.033,90.924 93.033,88.200 C93.033,88.200 93.033,26.515 93.033,26.515 C93.033,23.793 90.818,21.821 88.094,21.821 C88.094,21.821 72.774,21.821 72.774,21.821 C71.971,21.821 71.320,21.171 71.320,20.365 C71.320,19.564 71.971,18.912 72.774,18.912 C72.774,18.912 88.094,18.912 88.094,18.912 C92.417,18.912 95.940,22.188 95.940,26.515 C95.940,26.515 95.940,88.200 95.940,88.200 C95.940,92.528 92.417,95.999 88.094,95.999 ZM24.702,21.821 C24.702,21.821 7.832,21.821 7.832,21.821 C5.108,21.821 2.892,23.793 2.892,26.515 C2.892,26.515 2.892,88.200 2.892,88.200 C2.892,90.924 5.108,93.090 7.832,93.090 C7.832,93.090 24.702,93.090 24.702,93.090 C24.702,93.090 24.702,21.821 24.702,21.821 ZM40.690,93.090 C40.690,93.090 56.685,93.090 56.685,93.090 C56.685,93.090 56.685,78.593 56.685,78.593 C56.685,77.480 56.350,77.092 55.232,77.092 C55.232,77.092 42.144,77.092 42.144,77.092 C41.033,77.092 40.690,77.480 40.690,78.593 C40.690,78.593 40.690,93.090 40.690,93.090 ZM68.315,6.399 C68.315,4.503 66.678,2.914 64.781,2.914 C64.781,2.914 31.141,2.914 31.141,2.914 C29.247,2.914 27.610,4.503 27.610,6.399 C27.610,6.399 27.610,93.090 27.610,93.090 C27.610,93.090 37.783,93.090 37.783,93.090 C37.783,93.090 37.783,78.593 37.783,78.593 C37.783,75.860 39.417,74.182 42.144,74.182 C42.144,74.182 55.232,74.182 55.232,74.182 C57.963,74.182 59.593,75.860 59.593,78.593 C59.593,78.593 59.593,93.090 59.593,93.090 C59.593,93.090 68.315,93.090 68.315,93.090 C68.315,93.090 68.315,6.399 68.315,6.399 ZM57.267,58.184 C57.267,58.184 38.659,58.184 38.659,58.184 C37.856,58.184 37.205,57.533 37.205,56.728 C37.205,55.927 37.856,55.274 38.659,55.274 C38.659,55.274 57.267,55.274 57.267,55.274 C58.070,55.274 58.721,55.927 58.721,56.728 C58.721,57.533 58.070,58.184 57.267,58.184 ZM57.267,40.729 C57.267,40.729 38.659,40.729 38.659,40.729 C37.856,40.729 37.205,40.079 37.205,39.273 C37.205,38.472 37.856,37.820 38.659,37.820 C38.659,37.820 57.267,37.820 57.267,37.820 C58.070,37.820 58.721,38.472 58.721,39.273 C58.721,40.079 58.070,40.729 57.267,40.729 ZM57.267,21.821 C57.267,21.821 38.659,21.821 38.659,21.821 C37.856,21.821 37.205,21.171 37.205,20.365 C37.205,19.564 37.856,18.912 38.659,18.912 C38.659,18.912 57.267,18.912 57.267,18.912 C58.070,18.912 58.721,19.564 58.721,20.365 C58.721,21.171 58.070,21.821 57.267,21.821 ZM17.434,42.183 C17.434,42.183 10.161,42.183 10.161,42.183 C10.161,42.183 10.161,36.366 10.161,36.366 C10.161,36.366 17.434,36.366 17.434,36.366 C17.434,36.366 17.434,42.183 17.434,42.183 ZM17.434,61.093 C17.434,61.093 10.161,61.093 10.161,61.093 C10.161,61.093 10.161,53.820 10.161,53.820 C10.161,53.820 17.434,53.820 17.434,53.820 C17.434,53.820 17.434,61.093 17.434,61.093 ZM17.434,78.546 C17.434,78.546 10.161,78.546 10.161,78.546 C10.161,78.546 10.161,72.728 10.161,72.728 C10.161,72.728 17.434,72.728 17.434,72.728 C17.434,72.728 17.434,78.546 17.434,78.546 Z" id="path-1" class="cls-2" fill-rule="evenodd"/>
</svg>
