<svg xmlns="http://www.w3.org/2000/svg" xmlns:xlink="http://www.w3.org/1999/xlink" preserveAspectRatio="xMidYMid" width="84" height="72" viewBox="0 0 84 72">
  <defs>
    <style>

      .cls-2 {
        fill: #ffffff;
      }
    </style>
  </defs>
  <path d="M78.059,70.971 C78.059,70.971 5.967,70.971 5.967,70.971 C2.684,70.971 0.011,68.256 0.011,64.918 C0.011,64.918 0.011,16.577 0.011,16.577 C0.011,13.237 2.684,10.522 5.967,10.522 C5.967,10.522 29.736,10.522 29.736,10.522 C29.736,10.522 28.721,9.708 28.721,9.708 C28.829,9.557 29.386,8.647 32.216,3.525 C33.430,1.323 35.388,0.009 37.451,0.009 C37.451,0.009 46.608,0.009 46.608,0.009 C48.680,0.009 50.577,1.270 51.813,3.467 C51.813,3.467 55.411,9.870 55.411,9.870 C55.411,9.870 54.290,10.522 54.290,10.522 C54.290,10.522 78.059,10.522 78.059,10.522 C81.342,10.522 84.012,13.237 84.012,16.577 C84.012,16.577 84.012,64.918 84.012,64.918 C84.012,68.256 81.342,70.971 78.059,70.971 ZM49.569,4.771 C48.806,3.415 47.727,2.637 46.608,2.637 C46.608,2.637 37.451,2.637 37.451,2.637 C36.317,2.637 35.232,3.429 34.469,4.811 C32.648,8.109 31.742,9.710 31.264,10.522 C31.264,10.522 52.801,10.522 52.801,10.522 C52.801,10.522 49.569,4.771 49.569,4.771 ZM81.427,16.577 C81.427,14.688 79.916,13.151 78.059,13.151 C78.059,13.151 5.967,13.151 5.967,13.151 C4.109,13.151 2.595,14.688 2.595,16.577 C2.595,16.577 2.595,31.131 2.595,31.131 C3.556,31.872 5.497,33.724 9.872,38.590 C10.421,39.199 11.203,39.548 12.018,39.548 C12.018,39.548 73.565,39.548 73.565,39.548 C74.490,39.548 75.352,39.128 75.928,38.394 C75.928,38.394 81.427,31.400 81.427,31.400 C81.427,31.400 81.427,16.577 81.427,16.577 ZM81.427,35.610 C81.427,35.610 77.945,40.036 77.945,40.036 C76.875,41.396 75.278,42.176 73.565,42.176 C73.565,42.176 12.018,42.176 12.018,42.176 C10.476,42.176 8.999,41.515 7.966,40.362 C5.507,37.629 3.766,35.801 2.595,34.644 C2.595,34.644 2.595,64.918 2.595,64.918 C2.595,66.807 4.109,68.343 5.967,68.343 C5.967,68.343 78.059,68.343 78.059,68.343 C79.916,68.343 81.427,66.807 81.427,64.918 C81.427,64.918 81.427,35.610 81.427,35.610 ZM42.896,32.863 C39.744,32.863 37.179,30.254 37.179,27.049 C37.179,23.843 39.744,21.235 42.896,21.235 C46.050,21.235 48.616,23.843 48.616,27.049 C48.616,30.254 46.050,32.863 42.896,32.863 ZM42.896,23.863 C41.170,23.863 39.766,25.292 39.766,27.049 C39.766,28.805 41.170,30.236 42.896,30.236 C44.624,30.236 46.028,28.805 46.028,27.049 C46.028,25.292 44.624,23.863 42.896,23.863 Z" id="path-1" class="cls-2" fill-rule="evenodd"/>
</svg>
