<svg xmlns="http://www.w3.org/2000/svg" xmlns:xlink="http://www.w3.org/1999/xlink" preserveAspectRatio="xMidYMid" width="85" height="86" viewBox="0 0 85 86">
  <defs>
    <style>

      .cls-2 {
        fill: #ffffff;
      }
    </style>
  </defs>
  <path d="M42.086,85.019 C53.327,85.019 63.893,80.597 71.848,72.567 C79.796,64.537 84.174,53.864 84.174,42.508 C84.174,31.155 79.796,20.482 71.848,12.452 C63.893,4.423 53.327,0.000 42.086,0.000 C30.839,0.000 20.273,4.423 12.324,12.452 C4.373,20.482 -0.008,31.155 -0.008,42.508 C-0.008,53.864 4.373,64.537 12.324,72.567 C20.273,80.597 30.839,85.019 42.086,85.019 ZM14.182,14.332 C21.637,6.804 31.544,2.657 42.086,2.657 C52.625,2.657 62.532,6.804 69.987,14.332 C77.439,21.858 81.544,31.865 81.544,42.508 C81.544,53.152 77.439,63.161 69.987,70.687 C62.532,78.215 52.625,82.362 42.086,82.362 C31.544,82.362 21.637,78.215 14.182,70.687 C6.727,63.161 2.622,53.152 2.622,42.508 C2.622,31.865 6.727,21.858 14.182,14.332 ZM26.302,42.531 C26.302,41.797 26.888,41.203 27.617,41.203 C27.617,41.203 56.552,41.203 56.552,41.203 C57.281,41.203 57.870,41.797 57.870,42.531 C57.870,43.266 57.281,43.860 56.552,43.860 C56.552,43.860 27.617,43.860 27.617,43.860 C26.888,43.860 26.302,43.266 26.302,42.531 Z" id="path-1" class="cls-2" fill-rule="evenodd"/>
</svg>
