<svg xmlns="http://www.w3.org/2000/svg" xmlns:xlink="http://www.w3.org/1999/xlink" preserveAspectRatio="xMidYMid" width="72" height="64" viewBox="0 0 72 64">
  <defs>
    <style>

      .cls-2 {
        fill: #ffffff;
      }
    </style>
  </defs>
  <path d="M68.044,64.040 C68.044,64.040 4.192,64.040 4.192,64.040 C1.685,64.040 -0.001,62.709 -0.001,60.727 C-0.001,60.727 -0.001,8.835 -0.001,8.835 C-0.001,6.857 1.725,5.523 4.192,5.523 C4.192,5.523 10.124,5.523 10.124,5.523 C10.749,5.523 11.252,6.015 11.252,6.627 C11.252,7.237 10.749,7.731 10.124,7.731 C10.124,7.731 4.192,7.731 4.192,7.731 C3.993,7.731 2.249,7.714 2.249,8.835 C2.249,8.835 2.249,18.773 2.249,18.773 C2.249,18.773 69.752,18.773 69.752,18.773 C69.752,18.773 69.752,9.358 69.752,9.358 C69.752,8.433 68.985,7.731 68.044,7.731 C68.044,7.731 61.874,7.731 61.874,7.731 C61.254,7.731 60.749,7.237 60.749,6.627 C60.749,6.015 61.254,5.523 61.874,5.523 C61.874,5.523 68.044,5.523 68.044,5.523 C70.224,5.523 71.999,7.217 71.999,9.358 C71.999,9.358 71.999,60.158 71.999,60.158 C71.999,62.300 70.224,64.040 68.044,64.040 ZM69.752,20.981 C69.752,20.981 2.249,20.981 2.249,20.981 C2.249,20.981 2.249,60.727 2.249,60.727 C2.249,61.780 3.870,61.833 4.192,61.833 C4.192,61.833 68.044,61.833 68.044,61.833 C68.985,61.833 69.752,61.081 69.752,60.158 C69.752,60.158 69.752,20.981 69.752,20.981 ZM53.999,45.219 C53.999,49.670 50.832,51.896 46.197,51.896 C41.562,51.896 38.393,49.670 38.393,45.219 C38.393,42.403 39.858,40.309 42.326,39.391 C40.827,38.608 39.392,37.232 39.392,34.648 C39.392,30.720 42.160,28.952 46.197,28.952 C50.231,28.952 52.999,30.720 52.999,34.648 C52.999,37.232 51.565,38.608 50.063,39.391 C52.533,40.309 53.999,42.403 53.999,45.219 ZM50.798,34.648 C50.798,32.128 49.066,30.915 46.197,30.915 C43.328,30.915 41.596,32.128 41.596,34.648 C41.596,37.232 43.395,38.510 46.197,38.510 C48.996,38.510 50.798,37.232 50.798,34.648 ZM46.197,40.472 C42.697,40.472 40.594,41.979 40.594,45.219 C40.594,48.493 42.893,49.932 46.197,49.932 C49.496,49.932 51.798,48.493 51.798,45.219 C51.798,41.979 49.698,40.472 46.197,40.472 ZM35.193,50.791 C35.193,51.349 34.723,51.896 34.156,51.896 C34.156,51.896 21.285,51.896 21.285,51.896 C20.718,51.896 20.249,51.437 20.249,50.881 C20.249,43.682 32.657,42.894 32.657,35.791 C32.657,33.271 30.922,31.372 27.753,31.372 C24.985,31.372 23.783,32.746 23.017,34.382 C22.818,34.807 22.483,35.036 22.051,35.036 C21.484,35.036 21.015,34.569 21.015,34.014 C21.015,33.981 21.015,33.840 21.083,33.643 C21.984,30.992 24.320,29.366 27.753,29.366 C32.222,29.366 34.889,31.873 34.889,35.704 C34.889,43.559 22.517,46.376 22.517,49.689 C22.517,49.689 34.156,49.689 34.156,49.689 C34.723,49.689 35.193,50.235 35.193,50.791 ZM58.502,12.148 C57.876,12.148 57.377,11.653 57.377,11.044 C57.377,11.044 57.377,1.106 57.377,1.106 C57.377,0.497 57.876,0.003 58.502,0.003 C59.121,0.003 59.624,0.497 59.624,1.106 C59.624,1.106 59.624,11.044 59.624,11.044 C59.624,11.653 59.121,12.148 58.502,12.148 ZM53.999,7.731 C53.999,7.731 19.124,7.684 19.124,7.684 C18.501,7.682 17.999,7.187 18.002,6.578 C18.002,5.968 18.505,5.473 19.124,5.473 C19.124,5.473 54.002,5.523 54.002,5.523 C54.624,5.523 55.127,6.019 55.124,6.629 C55.124,7.237 54.621,7.731 53.999,7.731 ZM14.624,12.148 C14.005,12.148 13.499,11.653 13.499,11.044 C13.499,11.044 13.499,1.106 13.499,1.106 C13.499,0.497 14.005,0.003 14.624,0.003 C15.246,0.003 15.752,0.497 15.752,1.106 C15.752,1.106 15.752,11.044 15.752,11.044 C15.752,11.653 15.246,12.148 14.624,12.148 Z" id="path-1" class="cls-2" fill-rule="evenodd"/>
</svg>
