<svg xmlns="http://www.w3.org/2000/svg" xmlns:xlink="http://www.w3.org/1999/xlink" preserveAspectRatio="xMidYMid" width="67" height="92" viewBox="0 0 67 92">
  <defs>
    <style>

      .cls-2 {
        fill: #ffffff;
      }
    </style>
  </defs>
  <path d="M13.077,92.090 C20.290,92.090 26.161,86.217 26.161,78.999 C26.161,78.999 26.161,33.631 26.161,33.631 C26.161,33.631 63.962,25.528 63.962,25.528 C63.962,25.528 63.962,62.063 63.962,62.063 C61.563,59.090 57.894,57.181 53.786,57.181 C46.569,57.181 40.702,63.054 40.702,70.274 C40.702,77.491 46.569,83.363 53.786,83.363 C60.999,83.363 66.870,77.491 66.870,70.274 C66.870,70.274 66.870,5.628 66.870,5.628 C66.870,3.918 66.105,2.320 64.779,1.246 C63.450,0.172 61.736,-0.241 60.054,0.119 C60.054,0.119 27.708,7.055 27.708,7.055 C25.126,7.606 23.253,9.924 23.253,12.565 C23.253,12.565 23.253,70.787 23.253,70.787 C20.854,67.816 17.189,65.908 13.077,65.908 C5.863,65.908 -0.007,71.781 -0.007,78.999 C-0.007,86.217 5.863,92.090 13.077,92.090 ZM53.786,80.452 C48.175,80.452 43.609,75.884 43.609,70.274 C43.609,64.659 48.175,60.091 53.786,60.091 C59.396,60.091 63.962,64.659 63.962,70.274 C63.962,75.884 59.396,80.452 53.786,80.452 ZM28.317,9.899 C28.317,9.899 60.667,2.962 60.667,2.962 C61.477,2.789 62.304,2.988 62.948,3.507 C63.595,4.028 63.962,4.800 63.962,5.628 C63.962,5.628 63.962,22.553 63.962,22.553 C63.962,22.553 26.161,30.657 26.161,30.657 C26.161,30.657 26.161,12.565 26.161,12.565 C26.161,11.286 27.067,10.164 28.317,9.899 ZM13.077,68.817 C18.688,68.817 23.253,73.386 23.253,78.999 C23.253,84.612 18.688,89.180 13.077,89.180 C7.466,89.180 2.900,84.612 2.900,78.999 C2.900,73.386 7.466,68.817 13.077,68.817 Z" id="path-1" class="cls-2" fill-rule="evenodd"/>
</svg>
