<svg xmlns="http://www.w3.org/2000/svg" xmlns:xlink="http://www.w3.org/1999/xlink" preserveAspectRatio="xMidYMid" width="57" height="49" viewBox="0 0 57 49">
  <defs>
    <style>

      .cls-2 {
        fill: #ffffff;
      }
    </style>
  </defs>
  <path d="M14.894,48.450 C11.074,48.450 7.252,47.262 4.343,44.885 C-1.476,40.132 -1.476,32.400 4.346,27.649 C4.346,27.649 35.021,2.591 35.021,2.591 C39.273,-0.881 46.191,-0.881 50.443,2.591 C52.524,4.292 53.662,6.530 53.662,8.908 C53.662,11.286 52.524,13.523 50.464,15.207 C50.464,15.207 22.159,38.324 22.159,38.324 C22.159,38.324 21.785,38.598 21.785,38.598 C19.381,40.533 15.501,40.524 13.110,38.572 C13.110,38.572 13.054,38.525 13.054,38.525 C11.905,37.587 11.264,36.324 11.264,34.982 C11.264,33.639 11.905,32.375 13.067,31.426 C13.067,31.426 27.771,19.416 27.771,19.416 C28.345,18.949 29.270,18.949 29.844,19.416 C30.417,19.884 30.417,20.642 29.844,21.111 C29.844,21.111 15.142,33.120 15.142,33.120 C14.532,33.618 14.198,34.279 14.198,34.982 C14.198,35.684 14.532,36.345 15.142,36.843 C15.142,36.843 15.197,36.890 15.197,36.890 C16.442,37.905 18.486,37.904 19.743,36.878 C19.743,36.878 48.389,13.513 48.389,13.513 C49.897,12.281 50.728,10.646 50.728,8.908 C50.728,7.169 49.897,5.535 48.389,4.303 C45.259,1.746 40.201,1.746 37.093,4.285 C37.093,4.285 6.418,29.343 6.418,29.343 C1.743,33.160 1.743,39.373 6.418,43.191 C11.093,47.010 18.698,47.010 23.372,43.191 C23.372,43.191 54.048,18.134 54.048,18.134 C54.621,17.666 55.550,17.666 56.120,18.134 C56.693,18.602 56.693,19.360 56.120,19.828 C56.120,19.828 25.445,44.885 25.445,44.885 C22.536,47.262 18.716,48.450 14.894,48.450 Z" id="path-1" class="cls-2" fill-rule="evenodd"/>
</svg>
