<svg xmlns="http://www.w3.org/2000/svg" xmlns:xlink="http://www.w3.org/1999/xlink" preserveAspectRatio="xMidYMid" width="85" height="85" viewBox="0 0 85 85">
  <defs>
    <style>

      .cls-2 {
        fill: #ffffff;
      }
    </style>
  </defs>
  <path d="M42.104,85.022 C53.348,85.022 63.918,80.601 71.866,72.569 C79.818,64.542 84.195,53.867 84.195,42.514 C84.195,31.160 79.818,20.485 71.866,12.457 C63.918,4.427 53.348,0.004 42.104,0.004 C30.861,0.004 20.294,4.427 12.346,12.457 C4.394,20.485 0.014,31.160 0.014,42.514 C0.014,53.867 4.394,64.542 12.346,72.569 C20.294,80.601 30.861,85.022 42.104,85.022 ZM14.203,14.335 C21.658,6.806 31.566,2.660 42.104,2.660 C52.643,2.660 62.554,6.806 70.006,14.335 C77.461,21.862 81.565,31.870 81.565,42.514 C81.565,53.157 77.461,63.164 70.006,70.692 C62.554,78.218 52.643,82.364 42.104,82.364 C31.566,82.364 21.658,78.218 14.203,70.692 C6.748,63.164 2.647,53.157 2.647,42.514 C2.647,31.870 6.748,21.862 14.203,14.335 ZM29.340,52.424 C29.340,52.424 38.641,43.030 38.641,43.030 C38.641,43.030 29.340,33.635 29.340,33.635 C28.825,33.117 28.825,32.276 29.340,31.758 C29.852,31.238 30.686,31.238 31.201,31.758 C31.201,31.758 40.498,41.152 40.498,41.152 C40.498,41.152 49.802,31.758 49.802,31.758 C50.314,31.238 51.147,31.238 51.659,31.758 C52.174,32.276 52.174,33.117 51.659,33.635 C51.659,33.635 42.362,43.030 42.362,43.030 C42.362,43.030 51.659,52.424 51.659,52.424 C52.174,52.942 52.174,53.783 51.659,54.302 C51.402,54.561 51.068,54.691 50.730,54.691 C50.393,54.691 50.059,54.561 49.802,54.302 C49.802,54.302 40.498,44.908 40.498,44.908 C40.498,44.908 31.201,54.302 31.201,54.302 C30.943,54.561 30.606,54.691 30.269,54.691 C29.932,54.691 29.598,54.561 29.340,54.302 C28.825,53.783 28.825,52.942 29.340,52.424 Z" id="path-1" class="cls-2" fill-rule="evenodd"/>
</svg>
