<svg xmlns="http://www.w3.org/2000/svg" xmlns:xlink="http://www.w3.org/1999/xlink" preserveAspectRatio="xMidYMid" width="93" height="73" viewBox="0 0 93 73">
  <defs>
    <style>

      .cls-2 {
        fill: #ffffff;
      }
    </style>
  </defs>
  <path d="M63.950,72.702 C63.950,72.702 63.981,72.587 63.981,72.587 C63.981,72.587 4.693,72.587 4.693,72.587 C2.103,72.587 -0.003,70.734 -0.003,68.133 C-0.003,68.133 -0.003,65.951 -0.003,65.951 C-0.003,63.815 1.422,62.029 3.363,61.449 C3.069,60.833 2.888,60.150 2.888,59.421 C2.888,59.421 2.888,57.238 2.888,57.238 C2.888,55.104 4.316,53.318 6.257,52.737 C5.959,52.120 5.781,51.436 5.781,50.709 C5.781,50.709 5.781,48.527 5.781,48.527 C5.781,47.883 5.910,47.903 6.143,46.450 C6.143,46.450 4.693,46.450 4.693,46.450 C2.103,46.450 -0.003,44.598 -0.003,41.997 C-0.003,41.997 -0.003,39.814 -0.003,39.814 C-0.003,37.679 1.422,35.892 3.363,35.314 C3.069,34.696 2.888,34.014 2.888,33.284 C2.888,33.284 2.888,31.102 2.888,31.102 C2.888,30.372 3.069,29.691 3.363,29.072 C1.422,28.493 -0.003,26.704 -0.003,24.571 C-0.003,24.571 -0.003,22.389 -0.003,22.389 C-0.003,20.256 1.422,18.467 3.363,17.888 C3.069,17.271 2.888,16.588 2.888,15.860 C2.888,15.860 2.888,13.677 2.888,13.677 C2.888,12.949 3.069,12.266 3.363,11.646 C1.422,11.068 -0.003,9.282 -0.003,7.148 C-0.003,7.148 -0.003,4.966 -0.003,4.966 C-0.003,2.364 2.103,-0.014 4.693,-0.014 C4.693,-0.014 51.707,-0.014 51.707,-0.014 C54.300,-0.014 56.406,2.364 56.406,4.966 C56.406,4.966 56.406,7.148 56.406,7.148 C56.406,7.875 56.225,8.559 55.931,9.175 C57.875,9.755 59.300,11.543 59.300,13.677 C59.300,13.677 59.300,15.131 59.300,15.131 C60.719,14.915 62.160,14.735 63.641,14.735 C79.590,14.735 92.569,27.730 92.569,43.743 C92.569,59.652 79.755,72.533 63.950,72.702 ZM4.693,63.874 C3.697,63.874 2.888,64.951 2.888,65.951 C2.888,65.951 2.888,68.133 2.888,68.133 C2.888,69.131 3.697,69.683 4.693,69.683 C4.693,69.683 51.112,69.683 51.112,69.683 C48.087,68.231 45.343,66.778 43.014,63.874 C43.014,63.874 7.587,63.874 7.587,63.874 C7.587,63.874 4.693,63.874 4.693,63.874 ZM5.781,57.238 C5.781,57.238 5.781,59.421 5.781,59.421 C5.781,60.421 6.591,60.971 7.587,60.971 C7.587,60.971 40.552,60.971 40.552,60.971 C39.206,59.518 38.051,58.066 37.140,55.162 C37.140,55.162 10.481,55.162 10.481,55.162 C10.481,55.162 7.587,55.162 7.587,55.162 C6.591,55.162 5.781,56.239 5.781,57.238 ZM38.624,29.026 C38.624,29.026 7.587,29.026 7.587,29.026 C6.591,29.026 5.781,30.102 5.781,31.102 C5.781,31.102 5.781,33.284 5.781,33.284 C5.781,34.285 6.591,34.834 7.587,34.834 C7.587,34.834 36.043,34.834 36.043,34.834 C36.687,33.382 37.569,30.478 38.624,29.026 ZM34.857,46.450 C34.857,46.450 10.481,46.450 10.481,46.450 C9.484,46.450 8.675,47.526 8.675,48.527 C8.675,48.527 8.675,50.709 8.675,50.709 C8.675,51.708 9.484,52.257 10.481,52.257 C10.481,52.257 36.043,52.257 36.043,52.257 C35.460,50.807 35.056,49.353 34.857,46.450 ZM2.888,39.814 C2.888,39.814 2.888,41.997 2.888,41.997 C2.888,42.995 3.697,43.545 4.693,43.545 C4.693,43.545 10.481,43.545 10.481,43.545 C10.481,43.545 34.709,43.545 34.709,43.545 C34.709,42.095 34.912,39.191 35.295,37.738 C35.295,37.738 7.587,37.738 7.587,37.738 C7.587,37.738 4.693,37.738 4.693,37.738 C3.697,37.738 2.888,38.814 2.888,39.814 ZM2.888,22.389 C2.888,22.389 2.888,24.571 2.888,24.571 C2.888,25.572 3.697,26.122 4.693,26.122 C4.693,26.122 7.587,26.122 7.587,26.122 C7.587,26.122 40.552,26.122 40.552,26.122 C42.201,24.670 44.154,21.765 46.355,20.313 C46.355,20.313 7.587,20.313 7.587,20.313 C7.587,20.313 4.693,20.313 4.693,20.313 C3.697,20.313 2.888,21.390 2.888,22.389 ZM53.516,4.966 C53.516,3.965 52.706,2.889 51.707,2.889 C51.707,2.889 4.693,2.889 4.693,2.889 C3.697,2.889 2.888,3.965 2.888,4.966 C2.888,4.966 2.888,7.148 2.888,7.148 C2.888,8.146 3.697,8.698 4.693,8.698 C4.693,8.698 7.587,8.698 7.587,8.698 C7.587,8.698 51.707,8.698 51.707,8.698 C52.706,8.698 53.516,8.146 53.516,7.148 C53.516,7.148 53.516,4.966 53.516,4.966 ZM56.406,13.677 C56.406,12.678 55.597,11.601 54.601,11.601 C54.601,11.601 51.707,11.601 51.707,11.601 C51.707,11.601 7.587,11.601 7.587,11.601 C6.591,11.601 5.781,12.678 5.781,13.677 C5.781,13.677 5.781,15.860 5.781,15.860 C5.781,16.860 6.591,17.409 7.587,17.409 C7.587,17.409 50.619,17.409 50.619,17.409 C50.619,17.409 51.112,17.409 51.112,17.409 C52.795,17.409 54.564,16.202 56.406,15.723 C56.406,15.723 56.406,13.677 56.406,13.677 ZM63.549,17.672 C59.459,17.672 56.406,18.649 52.069,20.343 C52.069,20.343 52.069,20.313 52.069,20.313 C52.069,20.313 51.768,20.313 51.768,20.313 C43.369,24.670 37.603,33.560 37.603,43.677 C37.603,55.271 45.169,65.247 55.603,68.656 C55.603,68.656 55.606,68.647 55.606,68.647 C55.606,68.647 55.698,68.692 55.698,68.692 C58.203,69.499 60.869,69.945 63.641,69.945 C77.993,69.945 89.675,58.221 89.675,43.809 C89.675,29.397 77.904,17.672 63.549,17.672 ZM63.641,64.136 C52.473,64.136 43.388,55.017 43.388,43.809 C43.388,32.598 52.473,23.481 63.641,23.481 C74.805,23.481 83.887,32.598 83.887,43.809 C83.887,55.017 74.805,64.136 63.641,64.136 ZM63.641,26.384 C54.067,26.384 46.284,34.199 46.284,43.809 C46.284,53.416 54.067,61.233 63.641,61.233 C73.211,61.233 80.997,53.416 80.997,43.809 C80.997,34.199 73.211,26.384 63.641,26.384 Z" id="path-1" class="cls-2" fill-rule="evenodd"/>
</svg>
