<svg xmlns="http://www.w3.org/2000/svg" xmlns:xlink="http://www.w3.org/1999/xlink" preserveAspectRatio="xMidYMid" width="92" height="73" viewBox="0 0 92 73">
  <defs>
    <style>

      .cls-2 {
        fill: #ffffff;
      }
    </style>
  </defs>
  <path d="M56.711,40.954 C56.711,38.376 54.624,36.287 52.048,36.287 C52.048,36.287 4.676,36.287 4.676,36.287 C2.101,36.287 0.010,38.376 0.010,40.954 C0.010,40.954 0.010,67.983 0.010,67.983 C0.010,70.562 2.101,72.649 4.676,72.649 C4.676,72.649 52.048,72.649 52.048,72.649 C54.624,72.649 56.711,70.562 56.711,67.983 C56.711,67.983 56.711,40.954 56.711,40.954 ZM53.803,67.983 C53.803,68.955 53.018,69.742 52.048,69.742 C52.048,69.742 4.676,69.742 4.676,69.742 C3.704,69.742 2.918,68.955 2.918,67.983 C2.918,67.983 2.918,40.954 2.918,40.954 C2.918,39.983 3.704,39.196 4.676,39.196 C4.676,39.196 52.048,39.196 52.048,39.196 C53.018,39.196 53.803,39.983 53.803,40.954 C53.803,40.954 53.803,67.983 53.803,67.983 ZM85.817,43.366 C85.817,43.366 68.732,47.666 68.732,47.666 C66.648,48.181 65.433,50.044 65.433,52.194 C65.433,52.194 65.433,58.542 65.433,58.542 C65.433,60.709 66.662,62.575 68.767,63.081 C68.767,63.081 85.973,67.236 85.973,67.236 C86.330,67.323 86.641,67.366 87.005,67.366 C89.573,67.366 91.601,65.273 91.601,62.699 C91.601,62.699 91.601,47.894 91.601,47.894 C91.601,45.321 89.514,43.226 86.946,43.226 C86.569,43.226 86.188,43.273 85.817,43.366 ZM88.697,47.894 C88.697,47.894 88.697,62.699 88.697,62.699 C88.697,63.808 87.628,64.683 86.530,64.407 C86.530,64.407 69.445,60.252 69.445,60.252 C68.653,60.060 68.341,59.358 68.341,58.542 C68.341,58.542 68.341,52.194 68.341,52.194 C68.341,51.385 68.649,50.682 69.435,50.488 C69.435,50.488 86.641,46.189 86.641,46.189 C86.780,46.154 86.863,46.135 87.005,46.135 C87.970,46.135 88.697,46.924 88.697,47.894 ZM11.533,27.760 C16.926,27.760 21.315,23.523 21.315,18.314 C21.315,13.106 16.926,8.868 11.533,8.868 C6.141,8.868 1.755,13.106 1.755,18.314 C1.755,23.523 6.141,27.760 11.533,27.760 ZM11.533,11.776 C15.324,11.776 18.408,14.709 18.408,18.314 C18.408,21.920 15.324,24.850 11.533,24.850 C7.747,24.850 4.659,21.920 4.659,18.314 C4.659,14.709 7.747,11.776 11.533,11.776 ZM28.054,13.872 C28.054,21.529 34.520,27.760 42.464,27.760 C50.408,27.760 56.870,21.529 56.870,13.872 C56.870,6.215 50.408,-0.013 42.464,-0.013 C34.520,-0.013 28.054,6.215 28.054,13.872 ZM53.963,13.872 C53.963,19.925 48.805,24.850 42.464,24.850 C36.119,24.850 30.962,19.925 30.962,13.872 C30.962,7.820 36.119,2.896 42.464,2.896 C48.805,2.896 53.963,7.820 53.963,13.872 Z" id="path-1" class="cls-2" fill-rule="evenodd"/>
</svg>
