<svg xmlns="http://www.w3.org/2000/svg" xmlns:xlink="http://www.w3.org/1999/xlink" preserveAspectRatio="xMidYMid" width="85" height="85" viewBox="0 0 85 85">
  <defs>
    <style>

      .cls-2 {
        fill: #ffffff;
      }
    </style>
  </defs>
  <path d="M45.318,12.606 C45.907,13.264 45.886,14.276 45.254,14.909 C44.620,15.544 43.602,15.564 42.946,14.967 C42.946,14.967 3.733,53.994 3.733,53.994 C3.215,54.512 3.215,55.459 3.737,55.981 C3.737,55.981 7.927,60.179 7.927,60.179 C9.818,58.985 11.903,58.341 13.935,58.341 C20.121,58.341 25.151,63.382 25.151,69.577 C25.151,71.764 24.523,73.866 23.355,75.637 C23.355,75.637 27.509,79.797 27.509,79.797 C28.030,80.319 28.974,80.317 29.492,79.797 C29.492,79.797 41.383,67.889 41.383,67.889 C42.035,67.233 43.093,67.233 43.746,67.889 C44.402,68.544 44.402,69.605 43.746,70.260 C43.746,70.260 31.861,82.171 31.861,82.171 C30.948,83.082 29.725,83.539 28.502,83.539 C27.276,83.539 26.049,83.082 25.139,82.171 C25.139,82.171 19.952,76.969 19.952,76.969 C19.321,76.339 19.296,75.326 19.894,74.663 C21.123,73.286 21.804,71.482 21.804,69.577 C21.804,65.231 18.276,61.696 13.935,61.696 C12.209,61.696 10.382,62.398 8.785,63.675 C8.120,64.208 7.161,64.154 6.557,63.551 C6.557,63.551 1.370,58.352 1.370,58.352 C0.484,57.467 -0.000,56.271 -0.000,54.985 C-0.000,53.698 0.484,52.502 1.370,51.618 C1.370,51.618 41.422,11.753 41.422,11.753 C41.499,11.613 41.594,11.482 41.714,11.365 C41.833,11.243 41.971,11.143 42.115,11.069 C42.115,11.069 51.930,1.296 51.930,1.296 C53.690,-0.466 56.881,-0.472 58.647,1.299 C58.647,1.299 63.836,6.499 63.836,6.499 C64.440,7.104 64.492,8.067 63.959,8.735 C62.760,10.237 62.150,11.915 62.150,13.722 C62.150,18.069 65.679,21.607 70.019,21.607 C71.825,21.607 73.499,20.996 75.001,19.794 C75.666,19.261 76.625,19.312 77.229,19.917 C77.229,19.917 82.419,25.116 82.419,25.116 C83.302,26.001 83.789,27.199 83.789,28.485 C83.789,29.772 83.302,30.968 82.419,31.851 C82.419,31.851 70.868,43.424 70.868,43.424 C70.215,44.080 69.155,44.080 68.499,43.424 C67.846,42.769 67.846,41.706 68.499,41.053 C68.499,41.053 68.738,40.812 68.738,40.812 C68.738,40.812 68.667,40.740 68.667,40.740 C68.011,40.087 68.011,39.025 68.667,38.367 C69.323,37.714 70.384,37.714 71.034,38.367 C71.034,38.367 71.108,38.440 71.108,38.440 C71.108,38.440 80.052,29.478 80.052,29.478 C80.301,29.231 80.442,28.868 80.442,28.485 C80.442,28.099 80.301,27.736 80.052,27.489 C80.052,27.489 75.859,23.287 75.859,23.287 C74.069,24.400 72.110,24.961 70.019,24.961 C63.833,24.961 58.803,19.921 58.803,13.722 C58.803,11.628 59.361,9.665 60.471,7.873 C60.471,7.873 56.277,3.671 56.277,3.671 C55.759,3.153 54.815,3.153 54.294,3.671 C54.294,3.671 45.318,12.606 45.318,12.606 ZM61.672,31.362 C61.022,32.017 61.022,33.079 61.672,33.735 C61.672,33.735 64.026,36.089 64.026,36.089 C64.351,36.416 64.781,36.581 65.210,36.581 C65.636,36.581 66.065,36.416 66.390,36.089 C67.046,35.434 67.046,34.372 66.390,33.716 C66.390,33.716 64.042,31.362 64.042,31.362 C63.389,30.708 62.328,30.708 61.672,31.362 ZM54.625,24.298 C53.969,24.953 53.969,26.016 54.625,26.669 C54.625,26.669 56.973,29.026 56.973,29.026 C57.301,29.352 57.730,29.516 58.159,29.516 C58.585,29.516 59.015,29.352 59.343,29.026 C59.996,28.370 59.996,27.308 59.343,26.652 C59.343,26.652 56.994,24.298 56.994,24.298 C56.339,23.644 55.278,23.644 54.625,24.298 ZM47.572,17.234 C46.919,17.888 46.919,18.950 47.572,19.606 C47.572,19.606 49.923,21.960 49.923,21.960 C50.251,22.288 50.677,22.452 51.106,22.452 C51.535,22.452 51.964,22.288 52.289,21.960 C52.942,21.307 52.942,20.244 52.289,19.589 C52.289,19.589 49.941,17.234 49.941,17.234 C49.285,16.581 48.228,16.581 47.572,17.234 ZM83.746,65.216 C83.746,75.390 75.485,83.667 65.332,83.667 C55.177,83.667 46.916,75.390 46.916,65.216 C46.916,55.043 55.177,46.766 65.332,46.766 C75.485,46.766 83.746,55.043 83.746,65.216 ZM80.399,65.216 C80.399,56.892 73.640,50.121 65.332,50.121 C57.022,50.121 50.263,56.892 50.263,65.216 C50.263,73.541 57.022,80.314 65.332,80.314 C73.640,80.314 80.399,73.541 80.399,65.216 ZM73.704,63.540 C73.704,63.540 67.006,63.540 67.006,63.540 C67.006,63.540 67.006,56.831 67.006,56.831 C67.006,55.902 66.258,55.152 65.332,55.152 C64.407,55.152 63.659,55.902 63.659,56.831 C63.659,56.831 63.659,63.540 63.659,63.540 C63.659,63.540 56.961,63.540 56.961,63.540 C56.035,63.540 55.287,64.290 55.287,65.216 C55.287,66.145 56.035,66.895 56.961,66.895 C56.961,66.895 63.659,66.895 63.659,66.895 C63.659,66.895 63.659,73.602 63.659,73.602 C63.659,74.531 64.407,75.281 65.332,75.281 C66.258,75.281 67.006,74.531 67.006,73.602 C67.006,73.602 67.006,66.895 67.006,66.895 C67.006,66.895 73.704,66.895 73.704,66.895 C74.627,66.895 75.378,66.145 75.378,65.216 C75.378,64.290 74.627,63.540 73.704,63.540 Z" id="path-1" class="cls-2" fill-rule="evenodd"/>
</svg>
