<svg xmlns="http://www.w3.org/2000/svg" xmlns:xlink="http://www.w3.org/1999/xlink" preserveAspectRatio="xMidYMid" width="87" height="88" viewBox="0 0 87 88">
  <defs>
    <style>

      .cls-2 {
        fill: #ffffff;
      }
    </style>
  </defs>
  <path d="M43.084,87.681 C43.084,87.681 42.726,87.681 42.726,87.681 C18.966,86.351 -0.205,67.477 -0.009,43.484 C0.187,19.686 19.515,0.005 43.075,0.005 C43.075,0.005 43.434,0.005 43.434,0.005 C67.197,0.005 86.365,20.208 86.171,44.201 C85.972,67.999 66.645,87.681 43.084,87.681 ZM43.415,2.664 C43.415,2.664 43.075,2.662 43.075,2.662 C20.952,2.662 2.805,21.158 2.621,43.505 C2.441,66.036 20.440,83.695 42.744,85.023 C42.744,85.023 43.084,85.023 43.084,85.023 C65.207,85.023 83.354,66.527 83.538,44.182 C83.722,21.651 65.725,2.849 43.415,2.664 ZM50.895,50.942 C50.763,51.205 50.552,51.419 50.285,51.547 C50.285,51.547 23.993,64.248 23.993,64.248 C23.812,64.335 23.619,64.378 23.426,64.378 C23.080,64.378 22.743,64.241 22.488,63.981 C22.093,63.578 21.998,62.965 22.249,62.456 C22.249,62.456 35.259,36.118 35.259,36.118 C35.387,35.852 35.602,35.641 35.869,35.511 C35.869,35.511 62.166,22.800 62.166,22.800 C62.672,22.559 63.279,22.663 63.675,23.068 C64.067,23.473 64.162,24.085 63.911,24.592 C63.911,24.592 50.895,50.942 50.895,50.942 ZM37.410,37.713 C37.410,37.713 26.311,60.183 26.311,60.183 C26.311,60.183 48.743,49.346 48.743,49.346 C48.743,49.346 59.849,26.869 59.849,26.869 C59.849,26.869 37.410,37.713 37.410,37.713 Z" id="path-1" class="cls-2" fill-rule="evenodd"/>
</svg>
