<svg xmlns="http://www.w3.org/2000/svg" xmlns:xlink="http://www.w3.org/1999/xlink" preserveAspectRatio="xMidYMid" width="55" height="72" viewBox="0 0 55 72">
  <defs>
    <style>

      .cls-2 {
        fill: #ffffff;
      }
    </style>
  </defs>
  <path d="M50.291,70.969 C52.902,70.969 54.870,68.880 54.870,66.083 C54.870,66.083 54.870,4.894 54.870,4.894 C54.870,2.087 52.902,0.009 50.291,0.009 C50.291,0.009 10.064,0.009 10.064,0.009 C7.351,0.009 5.226,2.160 5.226,4.852 C5.226,4.852 5.226,6.023 5.226,6.023 C5.226,6.023 1.214,6.023 1.214,6.023 C0.546,6.023 0.006,6.560 0.006,7.225 C0.006,7.888 0.546,8.428 1.214,8.428 C1.214,8.428 5.226,8.428 5.226,8.428 C5.226,8.428 5.226,15.644 5.226,15.644 C5.226,15.644 1.594,15.644 1.594,15.644 C0.923,15.644 0.383,16.183 0.383,16.847 C0.383,17.511 0.923,18.050 1.594,18.050 C1.594,18.050 5.226,18.050 5.226,18.050 C5.226,18.050 5.226,25.266 5.226,25.266 C5.226,25.266 1.594,25.266 1.594,25.266 C0.923,25.266 0.383,25.804 0.383,26.468 C0.383,27.132 0.923,27.671 1.594,27.671 C1.594,27.671 5.226,27.671 5.226,27.671 C5.226,27.671 5.226,33.685 5.226,33.685 C5.226,33.685 1.594,33.685 1.594,33.685 C0.923,33.685 0.383,34.223 0.383,34.888 C0.383,35.551 0.923,36.091 1.594,36.091 C1.594,36.091 5.226,36.091 5.226,36.091 C5.226,36.091 5.226,43.307 5.226,43.307 C5.226,43.307 1.594,43.307 1.594,43.307 C0.923,43.307 0.383,43.846 0.383,44.509 C0.383,45.173 0.923,45.712 1.594,45.712 C1.594,45.712 5.226,45.712 5.226,45.712 C5.226,45.712 5.226,52.929 5.226,52.929 C5.226,52.929 1.594,52.929 1.594,52.929 C0.923,52.929 0.383,53.467 0.383,54.132 C0.383,54.795 0.923,55.334 1.594,55.334 C1.594,55.334 5.226,55.334 5.226,55.334 C5.226,55.334 5.226,62.551 5.226,62.551 C5.226,62.551 1.594,62.551 1.594,62.551 C0.923,62.551 0.383,63.090 0.383,63.753 C0.383,64.417 0.923,64.956 1.594,64.956 C1.594,64.956 5.226,64.956 5.226,64.956 C5.226,64.956 5.226,66.105 5.226,66.105 C5.226,68.799 7.351,70.969 10.064,70.969 C10.064,70.969 50.291,70.969 50.291,70.969 ZM52.449,4.894 C52.449,4.894 52.449,66.083 52.449,66.083 C52.449,67.288 51.774,68.565 50.291,68.565 C50.291,68.565 42.762,68.565 42.762,68.565 C42.762,68.565 42.762,2.489 42.762,2.489 C42.762,2.449 42.780,2.414 42.777,2.414 C42.777,2.414 50.291,2.414 50.291,2.414 C51.774,2.414 52.449,3.680 52.449,4.894 M7.648,66.105 C7.648,66.105 7.648,64.956 7.648,64.956 C7.648,64.956 11.121,64.956 11.121,64.956 C11.792,64.956 12.332,64.417 12.332,63.753 C12.332,63.090 11.792,62.551 11.121,62.551 C11.121,62.551 7.648,62.551 7.648,62.551 C7.648,62.551 7.648,55.334 7.648,55.334 C7.648,55.334 11.121,55.334 11.121,55.334 C11.792,55.334 12.332,54.795 12.332,54.132 C12.332,53.467 11.792,52.929 11.121,52.929 C11.121,52.929 7.648,52.929 7.648,52.929 C7.648,52.929 7.648,45.712 7.648,45.712 C7.648,45.712 11.121,45.712 11.121,45.712 C11.792,45.712 12.332,45.173 12.332,44.509 C12.332,43.846 11.792,43.307 11.121,43.307 C11.121,43.307 7.648,43.307 7.648,43.307 C7.648,43.307 7.648,36.091 7.648,36.091 C7.648,36.091 11.121,36.091 11.121,36.091 C11.792,36.091 12.332,35.551 12.332,34.888 C12.332,34.223 11.792,33.685 11.121,33.685 C11.121,33.685 7.648,33.685 7.648,33.685 C7.648,33.685 7.648,27.671 7.648,27.671 C7.648,27.671 11.121,27.671 11.121,27.671 C11.792,27.671 12.332,27.132 12.332,26.468 C12.332,25.804 11.792,25.266 11.121,25.266 C11.121,25.266 7.648,25.266 7.648,25.266 C7.648,25.266 7.648,18.050 7.648,18.050 C7.648,18.050 11.121,18.050 11.121,18.050 C11.792,18.050 12.332,17.511 12.332,16.847 C12.332,16.183 11.792,15.644 11.121,15.644 C11.121,15.644 7.648,15.644 7.648,15.644 C7.648,15.644 7.648,8.428 7.648,8.428 C7.648,8.428 10.744,8.428 10.744,8.428 C11.412,8.428 11.955,7.888 11.955,7.225 C11.955,6.560 11.412,6.023 10.744,6.023 C10.744,6.023 7.648,6.023 7.648,6.023 C7.648,6.023 7.648,4.852 7.648,4.852 C7.648,3.487 8.687,2.414 10.064,2.414 C10.064,2.414 40.402,2.414 40.402,2.414 C40.402,2.414 40.340,2.449 40.340,2.489 C40.340,2.489 40.340,68.565 40.340,68.565 C40.340,68.565 10.064,68.565 10.064,68.565 C8.687,68.565 7.648,67.472 7.648,66.105 " id="path-1" class="cls-2" fill-rule="evenodd"/>
</svg>
