<svg xmlns="http://www.w3.org/2000/svg" xmlns:xlink="http://www.w3.org/1999/xlink" preserveAspectRatio="xMidYMid" width="85" height="86" viewBox="0 0 85 86">
  <defs>
    <style>

      .cls-2 {
        fill: #ffffff;
      }
    </style>
  </defs>
  <path d="M42.445,0.012 C19.031,0.012 -0.014,19.250 -0.014,42.895 C-0.014,66.540 19.031,85.778 42.445,85.778 C65.858,85.778 84.903,66.540 84.903,42.895 C84.903,19.250 65.858,0.012 42.445,0.012 ZM21.588,77.148 C23.090,76.524 24.957,76.480 27.762,76.480 C27.762,76.480 31.765,76.480 31.765,76.480 C32.200,76.480 32.605,76.262 32.850,75.898 C32.850,75.898 37.448,69.091 37.448,69.091 C37.632,68.818 37.687,68.501 37.654,68.196 C39.168,68.952 40.771,69.396 42.426,69.396 C44.125,69.396 45.765,68.926 47.310,68.136 C47.257,68.464 47.322,68.810 47.524,69.104 C47.524,69.104 52.236,75.910 52.236,75.910 C52.481,76.266 52.882,76.480 53.312,76.480 C53.312,76.480 58.109,76.480 58.109,76.480 C60.681,76.480 62.174,76.511 63.397,77.083 C57.309,80.905 50.130,83.120 42.445,83.120 C34.803,83.120 27.660,80.931 21.588,77.148 ZM55.828,31.970 C57.321,37.182 58.605,46.365 55.681,48.810 C55.381,49.062 55.206,49.435 55.206,49.833 C55.206,57.285 49.189,66.740 42.426,66.740 C35.667,66.740 29.650,57.285 29.650,49.833 C29.650,49.650 29.613,49.467 29.540,49.298 C25.677,40.411 28.945,32.189 28.976,32.109 C29.043,31.947 29.077,31.772 29.077,31.599 C29.077,27.182 29.864,23.805 39.763,23.805 C40.008,23.805 40.247,23.736 40.455,23.606 C43.288,21.832 45.976,20.934 48.453,20.934 C51.245,20.934 53.581,22.100 55.028,24.219 C56.414,26.246 56.726,28.830 55.862,31.128 C55.761,31.398 55.752,31.693 55.828,31.970 ZM65.800,75.451 C63.617,73.813 61.263,73.821 58.103,73.821 C58.103,73.821 53.998,73.821 53.998,73.821 C53.998,73.821 49.682,67.584 49.682,67.584 C49.514,67.338 49.271,67.192 49.011,67.104 C53.998,63.587 57.609,56.607 57.827,50.416 C62.033,45.958 59.197,34.328 58.471,31.644 C59.452,28.638 58.986,25.329 57.192,22.709 C55.267,19.892 52.082,18.276 48.453,18.276 C45.578,18.276 42.531,19.242 39.389,21.149 C28.203,21.254 26.499,26.074 26.450,31.345 C25.867,32.910 23.203,41.064 27.023,50.113 C27.127,56.392 30.796,63.567 35.885,67.132 C35.649,67.225 35.428,67.366 35.275,67.594 C35.275,67.594 31.069,73.821 31.069,73.821 C31.069,73.821 27.762,73.821 27.762,73.821 C24.335,73.821 21.557,73.838 19.133,75.480 C9.136,68.166 2.616,56.288 2.616,42.895 C2.616,20.713 20.481,2.670 42.445,2.670 C64.405,2.670 82.273,20.715 82.273,42.895 C82.273,56.269 75.772,68.133 65.800,75.451 Z" id="path-1" class="cls-2" fill-rule="evenodd"/>
</svg>
