<svg xmlns="http://www.w3.org/2000/svg" xmlns:xlink="http://www.w3.org/1999/xlink" preserveAspectRatio="xMidYMid" width="46" height="82" viewBox="0 0 46 82">
  <defs>
    <style>

      .cls-2 {
        fill: #ffffff;
      }
    </style>
  </defs>
  <path d="M41.778,81.350 C41.778,81.350 4.497,81.350 4.497,81.350 C2.014,81.350 -0.006,79.330 -0.006,76.846 C-0.006,76.846 -0.006,4.509 -0.006,4.509 C-0.006,2.026 2.014,0.005 4.497,0.005 C4.497,0.005 41.778,0.005 41.778,0.005 C44.261,0.005 46.281,2.026 46.281,4.509 C46.281,4.509 46.281,76.846 46.281,76.846 C46.281,79.330 44.261,81.350 41.778,81.350 ZM43.780,4.509 C43.780,3.406 42.882,2.508 41.778,2.508 C41.778,2.508 4.497,2.508 4.497,2.508 C3.394,2.508 2.496,3.406 2.496,4.509 C2.496,4.509 2.496,11.268 2.496,11.268 C2.496,11.268 43.780,11.268 43.780,11.268 C43.780,11.268 43.780,4.509 43.780,4.509 ZM43.780,13.771 C43.780,13.771 2.496,13.771 2.496,13.771 C2.496,13.771 2.496,67.584 2.496,67.584 C2.496,67.584 43.780,67.584 43.780,67.584 C43.780,67.584 43.780,13.771 43.780,13.771 ZM43.780,70.087 C43.780,70.087 2.496,70.087 2.496,70.087 C2.496,70.087 2.496,76.846 2.496,76.846 C2.496,77.949 3.394,78.847 4.497,78.847 C4.497,78.847 41.778,78.847 41.778,78.847 C42.882,78.847 43.780,77.949 43.780,76.846 C43.780,76.846 43.780,70.087 43.780,70.087 ZM23.138,76.971 C21.642,76.971 20.428,75.754 20.428,74.258 C20.428,72.764 21.642,71.548 23.138,71.548 C24.634,71.548 25.848,72.764 25.848,74.258 C25.848,75.754 24.634,76.971 23.138,76.971 ZM23.138,74.051 C23.024,74.051 22.929,74.143 22.929,74.258 C22.929,74.489 23.346,74.489 23.346,74.258 C23.346,74.143 23.251,74.051 23.138,74.051 ZM17.510,6.262 C17.510,6.262 31.270,6.262 31.270,6.262 C31.960,6.262 32.521,6.822 32.521,7.513 C32.521,8.205 31.960,8.765 31.270,8.765 C31.270,8.765 17.510,8.765 17.510,8.765 C16.817,8.765 16.256,8.205 16.256,7.513 C16.256,6.822 16.817,6.262 17.510,6.262 Z" id="path-1" class="cls-2" fill-rule="evenodd"/>
</svg>
