<svg xmlns="http://www.w3.org/2000/svg" xmlns:xlink="http://www.w3.org/1999/xlink" preserveAspectRatio="xMidYMid" width="86" height="66" viewBox="0 0 86 66">
  <defs>
    <style>

      .cls-2 {
        fill: #ffffff;
      }
    </style>
  </defs>
  <path d="M82.140,35.530 C82.140,35.530 80.274,29.885 80.274,29.885 C80.074,29.281 79.753,28.716 79.351,28.204 C79.351,28.204 79.351,12.750 79.351,12.750 C79.348,11.303 78.370,9.651 77.061,8.900 C55.956,-2.983 29.732,-2.986 8.614,8.906 C7.318,9.648 6.340,11.302 6.337,12.754 C6.337,12.754 6.337,28.204 6.337,28.204 C5.935,28.716 5.613,29.281 5.414,29.885 C5.414,29.885 3.547,35.530 3.547,35.530 C1.506,36.071 -0.015,37.929 -0.015,40.156 C-0.015,40.156 -0.015,61.759 -0.015,61.759 C-0.015,63.965 2.122,65.760 4.749,65.760 C4.749,65.760 7.924,65.760 7.924,65.760 C10.398,65.760 12.808,63.862 13.405,61.449 C13.405,61.449 13.454,61.251 13.454,61.251 C13.700,60.261 14.846,59.359 15.861,59.359 C15.861,59.359 69.827,59.359 69.827,59.359 C70.841,59.359 71.988,60.261 72.233,61.257 C72.233,61.257 72.279,61.442 72.279,61.442 C72.880,63.862 75.289,65.760 77.763,65.760 C77.763,65.760 80.939,65.760 80.939,65.760 C83.566,65.760 85.702,63.965 85.702,61.759 C85.702,61.759 85.702,40.156 85.702,40.156 C85.702,37.929 84.182,36.071 82.140,35.530 ZM11.097,28.955 C11.097,28.955 74.590,28.955 74.590,28.955 C75.651,28.955 76.926,29.880 77.263,30.898 C77.263,30.898 78.735,35.356 78.735,35.356 C78.735,35.356 6.950,35.356 6.950,35.356 C6.950,35.356 8.424,30.898 8.424,30.898 C8.761,29.880 10.037,28.955 11.097,28.955 ZM38.082,25.754 C38.082,25.754 19.033,25.754 19.033,25.754 C19.033,25.754 19.033,20.954 19.033,20.954 C19.033,20.071 19.748,19.354 20.621,19.354 C20.621,19.354 36.494,19.354 36.494,19.354 C37.371,19.354 38.082,20.071 38.082,20.954 C38.082,20.954 38.082,25.754 38.082,25.754 ZM66.654,25.754 C66.654,25.754 47.606,25.754 47.606,25.754 C47.606,25.754 47.606,20.954 47.606,20.954 C47.606,20.071 48.317,19.354 49.194,19.354 C49.194,19.354 65.066,19.354 65.066,19.354 C65.940,19.354 66.654,20.071 66.654,20.954 C66.654,20.954 66.654,25.754 66.654,25.754 ZM10.174,11.694 C30.323,0.351 55.361,0.351 75.501,11.688 C75.835,11.879 76.175,12.470 76.178,12.754 C76.178,12.754 76.178,26.017 76.178,26.017 C75.657,25.857 75.121,25.754 74.590,25.754 C74.590,25.754 69.827,25.754 69.827,25.754 C69.827,25.754 69.827,20.954 69.827,20.954 C69.827,18.307 67.693,16.154 65.066,16.154 C65.066,16.154 49.194,16.154 49.194,16.154 C46.567,16.154 44.430,18.307 44.430,20.954 C44.430,20.954 44.430,25.754 44.430,25.754 C44.430,25.754 41.257,25.754 41.257,25.754 C41.257,25.754 41.257,20.954 41.257,20.954 C41.257,18.307 39.121,16.154 36.494,16.154 C36.494,16.154 20.621,16.154 20.621,16.154 C17.994,16.154 15.861,18.307 15.861,20.954 C15.861,20.954 15.861,25.754 15.861,25.754 C15.861,25.754 11.097,25.754 11.097,25.754 C10.567,25.754 10.030,25.857 9.509,26.017 C9.509,26.017 9.509,12.757 9.509,12.757 C9.512,12.470 9.850,11.879 10.174,11.694 ZM82.527,61.759 C82.527,62.034 81.907,62.559 80.939,62.559 C80.939,62.559 77.763,62.559 77.763,62.559 C76.752,62.559 75.605,61.657 75.360,60.661 C75.360,60.661 75.311,60.476 75.311,60.476 C74.713,58.056 72.304,56.158 69.827,56.158 C69.827,56.158 15.861,56.158 15.861,56.158 C13.384,56.158 10.975,58.056 10.377,60.470 C10.377,60.470 10.328,60.667 10.328,60.667 C10.083,61.657 8.936,62.559 7.924,62.559 C7.924,62.559 4.749,62.559 4.749,62.559 C3.780,62.559 3.161,62.034 3.161,61.759 C3.161,61.759 3.161,40.156 3.161,40.156 C3.161,39.273 3.872,38.557 4.749,38.557 C4.749,38.557 80.939,38.557 80.939,38.557 C81.816,38.557 82.527,39.273 82.527,40.156 C82.527,40.156 82.527,61.759 82.527,61.759 Z" id="path-1" class="cls-2" fill-rule="evenodd"/>
</svg>
