<svg xmlns="http://www.w3.org/2000/svg" xmlns:xlink="http://www.w3.org/1999/xlink" preserveAspectRatio="xMidYMid" width="53" height="79" viewBox="0 0 53 79">
  <defs>
    <style>

      .cls-2 {
        fill: #ffffff;
      }
    </style>
  </defs>
  <path d="M40.921,39.940 C44.885,35.710 47.365,29.792 47.365,23.235 C47.365,10.417 37.923,-0.011 26.321,-0.011 C14.719,-0.011 5.274,10.417 5.274,23.235 C5.274,29.824 7.782,35.765 11.782,40.001 C5.982,40.892 0.014,45.724 0.014,51.796 C0.014,51.796 0.014,65.879 0.014,65.879 C0.014,72.473 5.323,78.363 11.852,78.363 C11.852,78.363 40.790,78.363 40.790,78.363 C47.316,78.363 52.628,72.473 52.628,65.879 C52.628,65.879 52.628,51.796 52.628,51.796 C52.628,45.481 46.712,40.649 40.921,39.940 ZM7.904,23.235 C7.904,11.880 16.165,2.644 26.321,2.644 C36.474,2.644 44.735,11.880 44.735,23.235 C44.735,34.588 36.474,43.825 26.321,43.825 C16.165,43.825 7.904,34.588 7.904,23.235 ZM49.995,65.879 C49.995,71.006 45.866,75.708 40.790,75.708 C40.790,75.708 11.852,75.708 11.852,75.708 C6.776,75.708 2.644,71.006 2.644,65.879 C2.644,65.879 2.644,51.796 2.644,51.796 C2.644,46.645 8.671,42.497 13.661,42.497 C13.903,42.497 14.115,42.414 14.311,42.299 C17.720,44.927 21.855,46.482 26.321,46.482 C30.882,46.482 35.100,44.851 38.552,42.114 C38.788,42.350 39.113,42.497 39.471,42.497 C44.339,42.497 49.995,46.558 49.995,51.796 C49.995,51.796 49.995,65.879 49.995,65.879 Z" id="path-1" class="cls-2" fill-rule="evenodd"/>
</svg>
