<svg xmlns="http://www.w3.org/2000/svg" xmlns:xlink="http://www.w3.org/1999/xlink" preserveAspectRatio="xMidYMid" width="54" height="54" viewBox="0 0 54 54">
  <defs>
    <style>

      .cls-2 {
        fill: #ffffff;
      }
    </style>
  </defs>
  <path d="M46.751,1.043 C46.751,1.043 51.683,6.010 51.683,6.010 C54.408,8.754 53.099,12.029 51.683,15.945 C51.683,15.945 44.899,27.585 36.129,36.416 C26.807,45.803 15.916,51.960 15.916,51.960 C12.317,53.824 8.774,54.703 6.048,51.960 C6.048,51.960 1.113,46.992 1.113,46.992 C-0.248,45.621 -0.539,43.176 1.113,42.025 C1.113,42.025 10.981,34.574 10.981,34.574 C12.651,33.435 14.552,33.201 15.916,34.574 C15.916,34.574 15.916,34.574 15.916,34.574 C15.916,34.574 15.916,34.574 15.916,34.574 C15.916,34.574 18.834,37.512 18.834,37.512 C22.255,34.941 26.062,31.808 29.483,28.364 C32.509,25.318 35.197,22.015 37.435,18.986 C37.435,18.986 34.415,15.945 34.415,15.945 C33.054,14.574 33.284,12.660 34.415,10.978 C34.415,10.978 41.815,1.043 41.815,1.043 C43.179,-0.328 45.386,-0.328 46.751,1.043 M41.969,18.581 C41.969,18.581 38.005,14.591 38.005,14.591 C37.138,13.718 37.285,12.500 38.005,11.430 C38.005,11.430 42.713,5.107 42.713,5.107 C43.581,3.940 44.985,4.235 45.852,5.107 C45.852,5.107 48.994,8.269 48.994,8.269 C50.224,9.435 49.868,12.154 49.218,13.462 C46.303,19.051 39.832,27.657 34.415,33.331 C28.171,40.152 13.448,49.476 13.448,49.476 C12.311,50.078 9.157,50.123 8.289,49.250 C8.289,49.250 5.150,46.089 5.150,46.089 C4.503,44.995 4.209,43.727 5.150,42.928 C5.150,42.928 11.428,38.186 11.428,38.186 C12.492,37.462 13.703,37.313 14.570,38.186 C14.570,38.186 18.439,42.082 18.439,42.082 C19.349,41.435 33.882,31.818 41.969,18.581 Z" id="path-1" class="cls-2" fill-rule="evenodd"/>
</svg>
