<svg xmlns="http://www.w3.org/2000/svg" xmlns:xlink="http://www.w3.org/1999/xlink" preserveAspectRatio="xMidYMid" width="84" height="86" viewBox="0 0 84 86">
  <defs>
    <style>

      .cls-2 {
        fill: #ffffff;
      }
    </style>
  </defs>
  <path d="M28.711,44.989 C28.169,44.499 28.126,43.660 28.610,43.114 C29.094,42.568 29.928,42.523 30.465,43.013 C30.465,43.013 38.652,50.434 38.652,50.434 C38.652,50.434 53.556,31.803 53.556,31.803 C54.013,31.233 54.840,31.142 55.408,31.605 C55.972,32.065 56.060,32.903 55.601,33.474 C55.601,33.474 39.808,53.216 39.808,53.216 C39.805,53.219 39.799,53.220 39.796,53.224 C39.789,53.230 39.789,53.237 39.783,53.245 C39.734,53.299 39.673,53.323 39.618,53.367 C39.376,53.574 39.091,53.710 38.784,53.710 C38.493,53.710 38.202,53.612 37.956,53.412 C37.904,53.369 37.877,53.308 37.834,53.258 C37.834,53.258 28.711,44.989 28.711,44.989 ZM12.324,72.567 C4.372,64.537 -0.005,53.864 -0.005,42.508 C-0.005,31.155 4.372,20.482 12.324,12.452 C20.272,4.423 30.842,0.000 42.082,0.000 C53.326,0.000 63.896,4.423 71.844,12.452 C79.796,20.482 84.173,31.155 84.173,42.508 C84.173,53.864 79.796,64.537 71.844,72.567 C63.896,80.597 53.326,85.019 42.082,85.019 C30.842,85.019 20.272,80.597 12.324,72.567 ZM2.622,42.508 C2.622,53.152 6.729,63.161 14.181,70.687 C21.633,78.215 31.544,82.362 42.082,82.362 C52.624,82.362 62.535,78.215 69.987,70.687 C77.438,63.161 81.543,53.152 81.543,42.508 C81.543,31.865 77.438,21.858 69.987,14.332 C62.535,6.804 52.624,2.657 42.082,2.657 C31.544,2.657 21.633,6.804 14.181,14.332 C6.729,21.858 2.622,31.865 2.622,42.508 Z" id="path-1" class="cls-2" fill-rule="evenodd"/>
</svg>
