<svg xmlns="http://www.w3.org/2000/svg" xmlns:xlink="http://www.w3.org/1999/xlink" preserveAspectRatio="xMidYMid" width="83" height="84" viewBox="0 0 83 84">
  <defs>
    <style>

      .cls-2 {
        fill: #ffffff;
      }
    </style>
  </defs>
  <path d="M80.357,56.587 C80.357,56.587 56.312,80.859 56.312,80.859 C55.058,82.127 53.366,82.824 51.594,82.824 C49.819,82.824 48.109,82.127 46.852,80.859 C46.852,80.859 2.113,35.761 2.113,35.761 C0.859,34.493 -0.008,32.809 -0.008,31.016 C-0.008,31.016 -0.008,6.745 -0.008,6.745 C-0.008,3.046 3.318,0.008 6.981,0.008 C6.981,0.008 31.016,0.008 31.016,0.008 C32.788,0.008 34.456,0.721 35.713,1.988 C35.713,1.988 80.363,47.093 80.363,47.093 C81.620,48.361 82.306,50.052 82.306,51.844 C82.306,53.636 81.610,55.322 80.357,56.587 ZM78.508,48.971 C78.508,48.971 33.852,3.867 33.852,3.867 C33.095,3.100 32.086,2.667 31.016,2.667 C31.016,2.667 6.981,2.667 6.981,2.667 C4.771,2.667 2.625,4.509 2.625,6.745 C2.625,6.745 2.625,31.016 2.625,31.016 C2.625,32.099 3.213,33.117 3.974,33.882 C3.974,33.882 48.799,78.981 48.799,78.981 C50.313,80.511 52.958,80.511 54.473,78.981 C54.473,78.981 78.508,54.709 78.508,54.709 C79.265,53.944 79.682,52.923 79.682,51.840 C79.682,50.758 79.265,49.736 78.508,48.971 ZM22.700,31.917 C22.007,31.917 21.302,31.837 20.609,31.683 C17.185,30.918 14.485,28.189 13.725,24.729 C13.102,21.905 13.758,19.016 15.515,16.802 C17.710,14.043 21.290,12.775 24.791,13.553 C28.212,14.319 30.915,17.049 31.675,20.507 C32.295,23.331 31.642,26.220 29.882,28.434 C28.123,30.649 25.505,31.917 22.700,31.917 ZM29.107,21.082 C28.576,18.665 26.614,16.683 24.220,16.149 C23.715,16.034 23.203,15.977 22.700,15.977 C20.695,15.977 18.825,16.883 17.569,18.466 C16.312,20.048 15.846,22.120 16.293,24.156 C16.824,26.571 18.785,28.554 21.176,29.089 C23.712,29.660 26.259,28.750 27.831,26.772 C29.088,25.190 29.554,23.116 29.107,21.082 Z" id="path-1" class="cls-2" fill-rule="evenodd"/>
</svg>
