<svg xmlns="http://www.w3.org/2000/svg" xmlns:xlink="http://www.w3.org/1999/xlink" preserveAspectRatio="xMidYMid" width="74" height="47" viewBox="0 0 74 47">
  <defs>
    <style>

      .cls-2 {
        fill: #ffffff;
      }
    </style>
  </defs>
  <path d="M73.684,8.525 C73.690,8.494 73.712,8.462 73.712,8.431 C73.712,8.431 73.712,4.939 73.712,4.939 C73.712,4.939 73.696,4.758 73.696,4.758 C72.758,1.866 70.652,0.004 68.258,0.004 C68.258,0.004 5.323,0.004 5.323,0.004 C2.662,0.004 -0.002,1.728 -0.002,4.631 C-0.002,4.631 -0.002,41.862 -0.002,41.862 C-0.002,44.770 2.711,46.733 5.323,46.733 C5.323,46.733 68.258,46.733 68.258,46.733 C70.916,46.733 72.801,44.536 73.663,42.657 C73.663,42.657 73.712,42.405 73.712,42.405 C73.712,42.405 73.712,8.882 73.712,8.882 C73.712,8.757 73.718,8.637 73.684,8.525 M71.471,8.788 C71.471,8.818 71.449,8.850 71.449,8.882 C71.449,8.882 71.449,41.838 71.449,41.838 C71.449,42.104 71.204,42.363 71.020,42.615 C71.020,42.615 47.503,19.166 47.503,19.166 C47.503,19.166 70.291,3.393 70.291,3.393 C70.303,3.384 70.269,3.371 70.281,3.364 C70.775,3.866 71.449,4.536 71.449,5.345 C71.449,5.345 71.449,8.431 71.449,8.431 C71.449,8.556 71.440,8.675 71.471,8.788 M5.973,2.400 C5.973,2.400 67.618,2.400 67.618,2.400 C67.618,2.400 38.178,22.791 38.178,22.791 C37.332,23.364 36.247,23.365 35.416,22.798 C35.416,22.798 5.973,2.400 5.973,2.400 ZM2.267,4.631 C2.267,4.023 2.567,3.512 3.073,3.128 C3.144,3.224 3.199,3.322 3.303,3.393 C3.303,3.393 26.459,19.441 26.459,19.441 C26.459,19.441 2.616,42.964 2.616,42.964 C2.380,42.633 2.267,42.264 2.267,41.862 C2.267,41.862 2.267,4.631 2.267,4.631 ZM5.323,44.336 C5.087,44.336 4.842,44.293 4.606,44.239 C4.606,44.239 28.396,20.797 28.396,20.797 C28.396,20.797 34.180,24.800 34.180,24.800 C34.971,25.341 35.882,25.611 36.795,25.611 C37.706,25.611 38.619,25.339 39.413,24.794 C39.413,24.794 45.587,20.516 45.587,20.516 C45.587,20.516 69.285,44.122 69.285,44.122 C68.963,44.256 68.617,44.336 68.258,44.336 C68.258,44.336 5.323,44.336 5.323,44.336 Z" id="path-1" class="cls-2" fill-rule="evenodd"/>
</svg>
