<svg xmlns="http://www.w3.org/2000/svg" xmlns:xlink="http://www.w3.org/1999/xlink" preserveAspectRatio="xMidYMid" width="85" height="75" viewBox="0 0 85 75">
  <defs>
    <style>

      .cls-2 {
        fill: #ffffff;
      }
    </style>
  </defs>
  <path d="M63.369,58.785 C53.192,68.069 42.865,74.163 42.764,74.223 C42.764,74.223 42.102,74.611 42.102,74.611 C42.102,74.611 41.443,74.223 41.443,74.223 C41.342,74.163 31.011,68.069 20.834,58.785 C7.019,46.180 0.011,34.006 0.011,22.595 C0.011,11.495 7.883,0.012 21.058,0.012 C30.735,0.012 38.997,5.519 42.102,13.201 C45.207,5.519 53.468,0.012 63.149,0.012 C76.324,0.012 84.193,11.495 84.193,22.595 C84.193,34.006 77.188,46.180 63.369,58.785 ZM63.149,2.668 C53.658,2.668 43.417,9.272 43.417,19.938 C43.417,19.938 40.787,19.938 40.787,19.938 C40.787,9.272 30.545,2.668 21.058,2.668 C9.532,2.668 2.641,12.800 2.641,22.595 C2.641,46.278 36.881,68.307 42.102,71.525 C47.319,68.305 81.562,46.265 81.562,22.595 C81.562,12.800 74.675,2.668 63.149,2.668 ZM74.163,25.253 C73.436,25.253 72.848,24.656 72.848,23.923 C72.848,18.046 68.725,11.968 61.834,11.968 C61.104,11.968 60.516,11.374 60.516,10.640 C60.516,9.905 61.104,9.311 61.834,9.311 C70.374,9.311 75.478,16.740 75.478,23.923 C75.478,24.656 74.889,25.253 74.163,25.253 Z" id="path-1" class="cls-2" fill-rule="evenodd"/>
</svg>
