<svg xmlns="http://www.w3.org/2000/svg" xmlns:xlink="http://www.w3.org/1999/xlink" preserveAspectRatio="xMidYMid" width="74" height="75" viewBox="0 0 74 75">
  <defs>
    <style>

      .cls-2 {
        fill: #ffffff;
      }
    </style>
  </defs>
  <path d="M36.858,74.421 C16.534,74.421 -0.000,57.727 -0.000,37.208 C-0.000,16.690 16.534,-0.003 36.858,-0.003 C57.181,-0.003 73.716,16.690 73.716,37.208 C73.716,57.727 57.181,74.421 36.858,74.421 ZM51.455,65.604 C52.644,65.441 54.039,65.695 55.029,65.802 C55.029,65.802 55.032,65.800 55.042,65.796 C55.045,65.796 55.045,65.796 55.045,65.795 C55.051,65.793 55.057,65.790 55.066,65.787 C55.066,65.786 55.069,65.785 55.069,65.783 C55.078,65.781 55.087,65.777 55.094,65.773 C55.100,65.771 55.106,65.767 55.115,65.763 C55.115,65.763 55.118,65.761 55.118,65.761 C55.127,65.757 55.137,65.751 55.146,65.747 C55.158,65.741 55.170,65.734 55.186,65.727 C55.192,65.723 55.198,65.719 55.204,65.715 C55.219,65.707 55.235,65.698 55.250,65.689 C55.253,65.687 55.259,65.685 55.265,65.682 C55.268,65.680 55.271,65.678 55.274,65.676 C55.290,65.666 55.308,65.656 55.324,65.644 C55.333,65.640 55.339,65.636 55.345,65.632 C55.345,65.631 55.348,65.630 55.351,65.628 C55.406,65.594 55.468,65.552 55.538,65.502 C55.544,65.498 55.550,65.493 55.556,65.488 C55.560,65.486 55.563,65.485 55.566,65.483 C55.590,65.463 55.618,65.444 55.642,65.425 C55.658,65.415 55.667,65.405 55.682,65.394 C55.710,65.373 55.737,65.351 55.768,65.327 C55.777,65.318 55.789,65.309 55.799,65.302 C55.881,65.234 55.970,65.158 56.065,65.073 C56.081,65.061 56.093,65.046 56.108,65.033 C56.142,65.004 56.173,64.972 56.206,64.941 C56.228,64.923 56.246,64.906 56.265,64.888 C56.298,64.856 56.332,64.821 56.369,64.785 C56.384,64.771 56.399,64.755 56.415,64.739 C56.418,64.737 56.421,64.735 56.421,64.733 C56.473,64.679 56.528,64.624 56.583,64.564 C57.711,62.797 59.382,60.292 60.948,58.396 C60.844,58.340 60.737,58.277 60.624,58.213 C60.535,58.159 60.440,58.103 60.345,58.043 C60.342,58.042 60.338,58.041 60.338,58.040 C60.268,57.997 60.194,57.953 60.124,57.905 C60.102,57.892 60.081,57.877 60.060,57.864 C59.992,57.821 59.925,57.776 59.857,57.729 C59.857,57.729 59.857,57.729 59.854,57.728 C59.830,57.712 59.802,57.693 59.778,57.674 C59.778,57.673 59.774,57.673 59.774,57.673 C59.710,57.629 59.649,57.585 59.584,57.540 C59.581,57.539 59.581,57.538 59.581,57.538 C59.551,57.514 59.517,57.490 59.483,57.467 C59.483,57.466 59.483,57.466 59.483,57.466 C59.425,57.423 59.364,57.378 59.302,57.332 C59.266,57.305 59.229,57.275 59.189,57.246 C59.189,57.245 59.189,57.244 59.186,57.243 C59.131,57.199 59.076,57.156 59.017,57.111 C59.017,57.111 59.017,57.110 59.017,57.110 C58.778,56.919 58.539,56.708 58.300,56.484 C58.300,56.482 58.297,56.480 58.297,56.479 C58.275,56.460 58.257,56.442 58.239,56.424 C58.162,56.349 58.085,56.272 58.009,56.195 C58.009,56.195 58.009,56.193 58.009,56.193 C57.963,56.149 57.920,56.107 57.877,56.062 C57.877,56.062 57.877,56.060 57.877,56.060 C57.635,55.804 57.402,55.527 57.181,55.235 C57.181,55.232 57.181,55.232 57.181,55.232 C57.166,55.215 57.154,55.197 57.138,55.179 C57.046,55.056 56.957,54.931 56.872,54.799 C56.859,54.783 56.847,54.766 56.835,54.749 C56.835,54.747 56.835,54.747 56.835,54.747 C56.758,54.628 56.681,54.505 56.608,54.378 C55.878,53.132 55.262,51.734 54.845,50.541 C54.842,50.539 54.836,50.535 54.833,50.533 C54.833,50.533 54.830,50.531 54.830,50.531 C54.830,50.529 54.824,50.527 54.821,50.525 C54.802,50.512 54.784,50.497 54.763,50.481 C54.753,50.475 54.744,50.468 54.738,50.460 C54.720,50.447 54.704,50.433 54.683,50.418 C54.674,50.410 54.664,50.402 54.652,50.391 C54.634,50.377 54.615,50.362 54.597,50.345 C54.585,50.336 54.576,50.326 54.563,50.317 C54.536,50.293 54.508,50.268 54.481,50.245 C54.468,50.236 54.459,50.227 54.447,50.217 C54.425,50.195 54.401,50.173 54.376,50.151 C54.361,50.138 54.349,50.125 54.333,50.112 C54.312,50.096 54.294,50.077 54.275,50.058 C54.260,50.044 54.245,50.032 54.232,50.018 C54.211,49.999 54.189,49.981 54.168,49.960 C54.156,49.948 54.143,49.937 54.131,49.926 C54.100,49.895 54.070,49.866 54.039,49.837 C54.036,49.836 54.036,49.835 54.033,49.833 C53.999,49.800 53.966,49.766 53.932,49.735 C53.929,49.731 53.926,49.729 53.923,49.726 C53.907,49.710 53.889,49.694 53.874,49.678 C53.858,49.662 53.846,49.649 53.831,49.634 C53.828,49.631 53.821,49.626 53.818,49.622 C53.812,49.614 53.803,49.606 53.797,49.600 C53.779,49.581 53.760,49.563 53.742,49.547 C53.739,49.541 53.730,49.534 53.726,49.529 C53.705,49.510 53.690,49.491 53.671,49.473 C53.650,49.451 53.628,49.428 53.610,49.409 C53.211,51.171 52.776,53.188 51.329,56.805 C49.426,61.563 49.401,61.366 49.401,66.764 C49.401,66.764 50.364,65.752 51.455,65.604 ZM37.327,48.019 C37.327,48.019 37.330,48.019 37.330,48.019 C37.333,48.019 37.336,48.019 37.342,48.019 C37.345,48.019 37.351,48.019 37.354,48.019 C40.260,47.986 46.658,43.537 46.658,42.083 C46.655,40.065 42.008,39.058 37.354,39.062 C37.351,39.062 37.345,39.062 37.342,39.062 C37.336,39.062 37.333,39.062 37.327,39.062 C32.673,39.058 28.026,40.065 28.026,42.083 C28.026,43.537 34.421,47.986 37.327,48.019 ZM13.613,58.424 C13.640,58.456 13.665,58.491 13.693,58.523 C13.760,58.602 13.821,58.681 13.886,58.760 C13.932,58.818 13.978,58.876 14.024,58.934 C14.070,58.993 14.116,59.051 14.165,59.112 C14.211,59.170 14.257,59.231 14.303,59.291 C14.352,59.351 14.398,59.411 14.441,59.471 C14.487,59.532 14.536,59.592 14.578,59.653 C14.628,59.715 14.673,59.778 14.723,59.840 C14.765,59.901 14.811,59.960 14.854,60.021 C14.903,60.086 14.952,60.152 15.001,60.218 C15.044,60.276 15.087,60.334 15.130,60.395 C15.182,60.463 15.234,60.535 15.284,60.604 C15.323,60.660 15.363,60.716 15.403,60.771 C15.464,60.858 15.529,60.945 15.590,61.032 C15.621,61.078 15.654,61.121 15.685,61.167 C15.768,61.285 15.851,61.402 15.930,61.519 C15.967,61.570 16.001,61.619 16.035,61.668 C16.090,61.747 16.142,61.824 16.194,61.900 C16.234,61.955 16.267,62.009 16.307,62.062 C16.356,62.135 16.405,62.207 16.454,62.279 C16.491,62.334 16.528,62.391 16.568,62.445 C16.611,62.514 16.660,62.583 16.706,62.651 C16.743,62.706 16.779,62.762 16.816,62.819 C16.862,62.886 16.905,62.953 16.951,63.019 C16.985,63.075 17.022,63.128 17.058,63.184 C17.104,63.249 17.144,63.315 17.187,63.380 C17.221,63.433 17.258,63.486 17.291,63.538 C17.331,63.600 17.371,63.661 17.411,63.721 C17.604,64.015 17.785,64.298 17.953,64.564 C18.931,65.596 19.511,65.802 19.511,65.802 C19.532,65.800 19.557,65.797 19.578,65.794 C19.679,65.783 19.780,65.771 19.888,65.757 C19.894,65.757 19.900,65.755 19.906,65.755 C19.955,65.749 20.004,65.743 20.050,65.737 C20.338,65.700 20.645,65.660 20.964,65.627 C20.970,65.626 20.973,65.626 20.979,65.626 C20.985,65.625 20.988,65.624 20.991,65.624 C20.991,65.624 20.991,65.624 20.994,65.624 C21.068,65.616 21.141,65.610 21.215,65.602 C21.218,65.602 21.221,65.602 21.227,65.602 C21.227,65.602 21.227,65.602 21.230,65.602 C21.301,65.594 21.371,65.588 21.442,65.583 C21.448,65.582 21.454,65.581 21.460,65.581 C21.460,65.581 21.463,65.581 21.463,65.581 C21.595,65.571 21.727,65.564 21.859,65.560 C21.862,65.560 21.865,65.560 21.868,65.559 C21.889,65.558 21.911,65.557 21.932,65.556 C21.997,65.554 22.061,65.554 22.122,65.552 C22.138,65.552 22.153,65.552 22.168,65.552 C22.217,65.551 22.266,65.552 22.312,65.552 C22.315,65.552 22.322,65.552 22.325,65.552 C22.340,65.553 22.352,65.553 22.365,65.553 C22.441,65.554 22.515,65.556 22.591,65.560 C22.604,65.560 22.619,65.561 22.631,65.562 C22.631,65.562 22.634,65.562 22.634,65.562 C22.784,65.569 22.935,65.583 23.085,65.604 C24.176,65.752 25.136,66.764 25.136,66.764 C25.136,61.366 25.114,61.563 23.211,56.805 C22.435,54.862 21.948,53.381 21.604,52.152 C20.725,52.346 19.802,52.518 18.821,52.671 C18.551,53.249 18.254,53.828 17.932,54.378 C16.736,56.421 14.827,57.720 13.591,58.396 C13.598,58.405 13.607,58.414 13.613,58.424 ZM36.858,0.682 C17.282,0.682 1.299,16.464 0.708,36.086 C5.287,36.638 9.953,37.004 15.489,35.980 C16.347,35.327 17.402,34.730 18.686,34.249 C19.501,33.944 22.049,33.379 22.049,33.379 C22.049,33.379 22.168,33.350 22.168,33.350 C23.447,32.804 24.513,32.339 25.415,31.938 C25.439,31.928 25.467,31.917 25.497,31.904 C25.510,31.899 25.525,31.893 25.540,31.887 C25.556,31.881 25.571,31.874 25.586,31.867 C25.589,31.866 25.589,31.866 25.592,31.866 C25.592,31.866 25.592,31.866 25.592,31.865 C25.602,31.861 25.617,31.856 25.626,31.852 C25.651,31.843 25.672,31.834 25.697,31.825 C25.709,31.820 25.721,31.815 25.733,31.810 C25.749,31.805 25.761,31.800 25.776,31.795 C25.798,31.788 25.816,31.780 25.838,31.773 C25.844,31.770 25.850,31.768 25.856,31.766 C25.862,31.764 25.865,31.762 25.871,31.760 C25.923,31.740 25.982,31.720 26.040,31.699 C26.049,31.695 26.061,31.691 26.071,31.687 C26.089,31.681 26.107,31.675 26.123,31.669 C26.135,31.666 26.144,31.662 26.156,31.658 C26.175,31.652 26.196,31.644 26.215,31.638 C26.215,31.638 26.215,31.638 26.215,31.637 C26.230,31.632 26.245,31.627 26.261,31.622 C26.285,31.613 26.310,31.604 26.337,31.596 C26.346,31.593 26.353,31.590 26.362,31.587 C26.362,31.586 26.362,31.586 26.365,31.586 C26.371,31.583 26.377,31.581 26.386,31.579 C26.481,31.546 26.583,31.513 26.684,31.479 C26.684,31.479 26.684,31.478 26.687,31.478 C26.708,31.471 26.733,31.464 26.751,31.456 C26.782,31.446 26.812,31.436 26.846,31.425 C26.846,31.425 26.849,31.424 26.849,31.424 C26.849,31.423 26.855,31.422 26.858,31.422 C26.880,31.414 26.901,31.407 26.926,31.400 C26.981,31.381 27.036,31.363 27.094,31.345 C27.104,31.342 27.110,31.339 27.119,31.337 C27.128,31.333 27.137,31.330 27.147,31.328 C27.165,31.321 27.186,31.314 27.208,31.308 C27.208,31.307 27.211,31.307 27.211,31.307 C27.238,31.298 27.266,31.289 27.294,31.280 C27.312,31.274 27.327,31.270 27.343,31.265 C27.413,31.241 27.487,31.218 27.560,31.195 C27.570,31.192 27.576,31.190 27.582,31.187 C27.609,31.179 27.637,31.170 27.668,31.160 C27.698,31.150 27.732,31.141 27.766,31.130 C27.769,31.129 27.769,31.129 27.769,31.128 C27.790,31.122 27.809,31.117 27.827,31.111 C27.870,31.096 27.913,31.083 27.959,31.069 C27.962,31.068 27.962,31.068 27.962,31.068 C27.965,31.066 27.971,31.065 27.977,31.063 C28.026,31.047 28.075,31.032 28.127,31.016 C28.140,31.012 28.149,31.010 28.158,31.007 C28.189,30.997 28.222,30.987 28.253,30.977 C28.321,30.956 28.388,30.935 28.455,30.915 C28.465,30.912 28.474,30.909 28.483,30.906 C28.483,30.905 28.486,30.904 28.489,30.904 C28.572,30.879 28.652,30.854 28.731,30.829 C28.737,30.828 28.741,30.827 28.741,30.826 C28.759,30.821 28.777,30.815 28.796,30.810 C28.906,30.776 29.016,30.743 29.124,30.710 C29.124,30.709 29.127,30.709 29.127,30.708 C29.142,30.704 29.154,30.700 29.167,30.696 C29.249,30.670 29.335,30.644 29.418,30.619 C29.433,30.616 29.446,30.611 29.461,30.607 C29.473,30.603 29.488,30.599 29.501,30.594 C29.550,30.580 29.596,30.566 29.645,30.551 C29.648,30.550 29.648,30.550 29.651,30.549 C29.691,30.538 29.725,30.526 29.761,30.515 C29.786,30.508 29.810,30.501 29.832,30.494 C29.844,30.491 29.856,30.488 29.869,30.485 C29.915,30.471 29.961,30.457 30.007,30.443 C30.007,30.442 30.010,30.442 30.013,30.441 C30.046,30.430 30.083,30.419 30.120,30.409 C30.141,30.402 30.163,30.396 30.181,30.390 C30.194,30.386 30.206,30.383 30.215,30.380 C30.243,30.372 30.264,30.365 30.289,30.358 C30.338,30.344 30.384,30.330 30.430,30.316 C30.448,30.311 30.463,30.306 30.479,30.302 C30.549,30.280 30.620,30.259 30.687,30.238 C30.699,30.235 30.712,30.232 30.721,30.229 C31.512,28.538 31.463,27.191 31.463,27.191 C30.531,25.408 30.377,22.727 30.362,21.789 C30.322,21.759 30.276,21.723 30.233,21.685 C30.233,21.685 29.614,21.685 29.614,21.685 C29.154,21.275 28.713,20.480 28.452,19.508 C28.042,17.959 28.256,16.549 28.928,16.358 C29.142,16.298 29.375,16.367 29.608,16.538 C29.556,15.818 29.280,15.255 29.274,14.543 C29.059,13.214 29.001,11.581 28.851,10.119 C28.400,7.134 30.761,7.155 32.002,7.361 C32.508,7.216 33.305,7.012 34.166,6.885 C36.361,6.420 39.540,5.930 41.002,6.578 C43.353,7.621 46.011,6.768 46.707,4.871 C46.707,4.871 47.629,6.202 46.305,7.905 C46.305,7.905 47.967,11.134 46.707,12.361 C46.707,12.361 46.391,11.107 44.877,11.118 C44.742,11.118 44.604,11.153 44.460,11.214 C44.693,12.780 44.684,14.632 44.561,16.456 C44.751,16.347 44.938,16.309 45.113,16.358 C45.784,16.549 45.999,17.959 45.585,19.508 C45.333,20.455 44.907,21.233 44.460,21.653 C44.460,21.664 44.460,21.674 44.460,21.685 C44.460,21.685 43.859,21.685 43.859,21.685 C43.856,24.638 43.405,26.500 42.694,27.586 C42.709,27.752 42.826,28.780 43.454,30.108 C43.746,30.194 44.113,30.303 44.524,30.427 C44.530,30.429 44.536,30.431 44.543,30.433 C44.601,30.450 44.662,30.468 44.720,30.486 C44.723,30.487 44.730,30.488 44.733,30.489 C44.855,30.526 44.981,30.564 45.107,30.603 C45.119,30.606 45.128,30.609 45.140,30.613 C45.196,30.629 45.251,30.645 45.306,30.662 C45.312,30.664 45.315,30.665 45.321,30.667 C45.327,30.669 45.333,30.670 45.340,30.673 C45.343,30.674 45.346,30.675 45.352,30.676 C45.401,30.692 45.453,30.708 45.508,30.724 C45.514,30.726 45.520,30.728 45.527,30.730 C45.527,30.731 45.530,30.731 45.536,30.732 C45.545,30.735 45.557,30.739 45.566,30.743 C45.603,30.753 45.640,30.764 45.677,30.775 C45.704,30.784 45.735,30.793 45.763,30.802 C45.766,30.803 45.772,30.804 45.775,30.805 C45.827,30.822 45.879,30.837 45.928,30.854 C45.931,30.855 45.937,30.856 45.940,30.857 C45.950,30.859 45.953,30.861 45.959,30.864 C45.968,30.866 45.977,30.869 45.986,30.871 C46.032,30.885 46.084,30.900 46.134,30.916 C46.299,30.968 46.468,31.019 46.630,31.071 C46.633,31.071 46.633,31.072 46.639,31.073 C46.642,31.074 46.648,31.076 46.655,31.078 C46.731,31.103 46.811,31.128 46.888,31.152 C46.915,31.160 46.940,31.168 46.964,31.176 C46.970,31.177 46.973,31.179 46.976,31.180 C47.004,31.189 47.032,31.198 47.062,31.207 C47.099,31.219 47.133,31.230 47.170,31.241 C47.173,31.243 47.176,31.244 47.179,31.245 C47.268,31.274 47.357,31.301 47.445,31.330 C47.449,31.331 47.455,31.333 47.458,31.335 C47.482,31.342 47.504,31.349 47.525,31.356 C47.565,31.369 47.602,31.382 47.642,31.395 C47.645,31.396 47.648,31.397 47.651,31.399 C47.666,31.403 47.678,31.406 47.691,31.410 C47.807,31.448 47.918,31.485 48.025,31.521 C48.028,31.523 48.031,31.523 48.034,31.524 C48.101,31.546 48.166,31.568 48.230,31.590 C48.246,31.596 48.261,31.601 48.279,31.607 C48.279,31.607 48.282,31.607 48.282,31.608 C48.298,31.614 48.313,31.619 48.331,31.625 C48.344,31.629 48.356,31.633 48.368,31.637 C48.390,31.646 48.414,31.654 48.439,31.662 C48.439,31.663 48.442,31.664 48.445,31.664 C48.457,31.668 48.469,31.673 48.485,31.678 C48.497,31.683 48.509,31.687 48.525,31.692 C48.543,31.698 48.561,31.705 48.580,31.712 C48.604,31.722 48.632,31.731 48.659,31.741 C48.662,31.742 48.666,31.743 48.669,31.744 C48.690,31.751 48.708,31.759 48.727,31.766 C48.730,31.767 48.730,31.767 48.733,31.767 C48.742,31.772 48.757,31.777 48.770,31.782 C48.782,31.785 48.791,31.790 48.803,31.794 C48.816,31.798 48.831,31.803 48.843,31.808 C48.865,31.816 48.886,31.825 48.908,31.833 C48.911,31.835 48.920,31.837 48.923,31.839 C48.941,31.845 48.960,31.852 48.975,31.859 C49.009,31.873 49.046,31.887 49.076,31.899 C49.076,31.900 49.076,31.900 49.076,31.901 C49.110,31.914 49.141,31.927 49.168,31.938 C49.257,31.978 49.355,32.037 49.463,32.108 C50.217,32.430 51.167,32.836 52.372,33.350 C52.372,33.350 52.979,33.505 52.979,33.505 C52.979,33.505 53.837,33.728 53.837,33.728 C53.837,33.728 55.363,34.066 55.854,34.249 C62.763,36.835 62.929,42.770 62.929,42.770 C62.932,42.771 62.932,42.772 62.935,42.772 C63.030,42.816 63.125,42.865 63.220,42.915 C63.241,42.924 63.263,42.937 63.284,42.948 C63.379,42.998 63.468,43.048 63.560,43.103 C63.579,43.113 63.597,43.125 63.615,43.135 C63.698,43.185 63.781,43.237 63.864,43.291 C63.876,43.301 63.891,43.309 63.907,43.318 C63.995,43.377 64.084,43.439 64.170,43.502 C64.192,43.517 64.213,43.533 64.235,43.549 C64.320,43.612 64.409,43.678 64.495,43.746 C64.507,43.755 64.520,43.766 64.532,43.776 C64.612,43.838 64.688,43.903 64.765,43.969 C64.783,43.983 64.802,43.998 64.817,44.014 C64.903,44.086 64.986,44.158 65.065,44.232 C65.087,44.251 65.105,44.269 65.124,44.287 C65.203,44.362 65.283,44.436 65.363,44.515 C65.366,44.519 65.372,44.525 65.378,44.530 C65.458,44.611 65.537,44.693 65.617,44.775 C65.639,44.795 65.657,44.814 65.675,44.834 C65.752,44.917 65.829,45.000 65.905,45.084 C65.921,45.102 65.936,45.121 65.951,45.140 C66.022,45.217 66.089,45.295 66.157,45.376 C66.169,45.391 66.181,45.405 66.193,45.418 C66.267,45.508 66.341,45.597 66.414,45.686 C66.432,45.710 66.451,45.732 66.469,45.756 C66.540,45.846 66.613,45.937 66.684,46.031 C66.693,46.045 66.702,46.061 66.714,46.074 C66.779,46.160 66.843,46.246 66.908,46.333 C66.920,46.353 66.935,46.374 66.951,46.394 C67.018,46.488 67.085,46.584 67.153,46.681 C67.168,46.705 67.183,46.727 67.199,46.751 C67.263,46.847 67.331,46.942 67.392,47.038 C67.398,47.046 67.401,47.054 67.407,47.061 C67.472,47.160 67.536,47.259 67.597,47.359 C67.616,47.383 67.631,47.407 67.646,47.431 C67.708,47.531 67.769,47.632 67.830,47.731 C67.843,47.753 67.855,47.774 67.867,47.794 C67.922,47.888 67.977,47.980 68.033,48.073 C68.042,48.089 68.051,48.105 68.060,48.121 C68.118,48.224 68.177,48.326 68.235,48.428 C68.247,48.454 68.263,48.481 68.278,48.506 C68.333,48.608 68.388,48.711 68.443,48.813 C68.453,48.830 68.462,48.846 68.471,48.862 C68.520,48.957 68.569,49.050 68.618,49.145 C68.630,49.167 68.640,49.189 68.652,49.210 C68.704,49.313 68.756,49.415 68.808,49.517 C68.820,49.543 68.833,49.567 68.845,49.591 C68.894,49.693 68.943,49.795 68.992,49.896 C68.995,49.902 68.998,49.909 69.001,49.916 C69.050,50.018 69.099,50.121 69.145,50.225 C69.158,50.249 69.167,50.272 69.179,50.296 C69.225,50.398 69.271,50.499 69.317,50.600 C69.326,50.621 69.335,50.641 69.345,50.660 C69.384,50.756 69.427,50.848 69.467,50.941 C69.473,50.955 69.476,50.970 69.486,50.985 C69.529,51.086 69.568,51.185 69.611,51.286 C69.620,51.308 69.630,51.332 69.639,51.355 C69.682,51.454 69.722,51.554 69.761,51.651 C69.765,51.665 69.771,51.677 69.777,51.691 C69.814,51.782 69.847,51.873 69.881,51.961 C69.890,51.981 69.899,51.999 69.902,52.017 C69.906,52.023 69.909,52.028 69.909,52.033 C71.913,47.500 73.035,42.486 73.035,37.208 C73.035,17.068 56.807,0.682 36.858,0.682 ZM36.738,42.087 C36.738,42.087 37.348,40.613 37.348,40.613 C37.348,40.613 37.728,42.087 37.728,42.087 C37.728,42.087 39.295,42.087 39.295,42.087 C39.295,42.087 38.200,43.191 38.200,43.191 C38.200,43.191 38.565,44.666 38.565,44.666 C38.565,44.666 37.360,43.726 37.360,43.726 C37.360,43.726 36.012,44.666 36.012,44.666 C36.012,44.666 36.376,43.191 36.376,43.191 C36.376,43.191 35.159,42.087 35.159,42.087 C35.159,42.087 36.738,42.087 36.738,42.087 Z" id="path-1" class="cls-2" fill-rule="evenodd"/>
</svg>
