<svg xmlns="http://www.w3.org/2000/svg" xmlns:xlink="http://www.w3.org/1999/xlink" preserveAspectRatio="xMidYMid" width="83" height="76" viewBox="0 0 83 76">
  <defs>
    <style>

      .cls-2 {
        fill: #ffffff;
      }
    </style>
  </defs>
  <path d="M81.269,49.372 C81.269,49.372 56.641,74.245 56.641,74.245 C56.384,74.505 56.047,74.635 55.713,74.635 C55.375,74.635 55.038,74.505 54.784,74.245 C54.266,73.727 54.266,72.886 54.784,72.368 C54.784,72.368 79.411,47.494 79.411,47.494 C79.926,46.973 80.211,46.279 80.211,45.539 C80.211,44.800 79.926,44.106 79.411,43.582 C79.411,43.582 38.746,2.511 38.746,2.511 C38.228,1.993 38.228,1.152 38.746,0.634 C39.258,0.115 40.091,0.115 40.603,0.634 C40.603,0.634 81.269,41.703 81.269,41.703 C82.286,42.728 82.841,44.091 82.841,45.539 C82.841,46.988 82.286,48.349 81.269,49.372 ZM72.257,45.539 C72.257,47.029 71.680,48.430 70.638,49.483 C70.638,49.483 49.094,71.239 49.094,71.239 C48.052,72.294 46.664,72.874 45.189,72.874 C43.715,72.874 42.326,72.294 41.284,71.239 C41.284,71.239 1.786,31.525 1.786,31.525 C0.760,30.489 -0.004,29.050 -0.004,27.580 C-0.004,27.580 -0.004,5.824 -0.004,5.824 C-0.004,2.747 2.823,0.004 5.866,0.004 C5.866,0.004 27.407,0.004 27.407,0.004 C28.884,0.004 30.270,0.704 31.312,1.757 C31.312,1.757 70.638,41.594 70.638,41.594 C71.680,42.647 72.257,44.049 72.257,45.539 ZM68.777,43.412 C68.777,43.412 29.455,3.639 29.455,3.639 C28.909,3.087 28.179,2.661 27.407,2.661 C27.407,2.661 5.866,2.661 5.866,2.661 C4.269,2.661 2.626,4.212 2.626,5.824 C2.626,5.824 2.626,27.580 2.626,27.580 C2.626,28.352 3.108,29.102 3.647,29.644 C3.647,29.644 43.145,69.358 43.145,69.358 C44.236,70.463 46.143,70.459 47.237,69.354 C47.237,69.354 68.777,47.590 68.777,47.590 C69.326,47.038 69.626,46.290 69.626,45.510 C69.626,44.730 69.326,43.964 68.777,43.412 ZM18.756,26.812 C14.404,26.812 10.866,23.236 10.866,18.842 C10.866,14.447 14.404,10.871 18.756,10.871 C23.106,10.871 26.650,14.447 26.650,18.842 C26.650,23.236 23.106,26.812 18.756,26.812 ZM18.756,13.528 C15.853,13.528 13.496,15.911 13.496,18.842 C13.496,21.773 15.853,24.155 18.756,24.155 C21.659,24.155 24.017,21.773 24.017,18.842 C24.017,15.911 21.659,13.528 18.756,13.528 Z" id="path-1" class="cls-2" fill-rule="evenodd"/>
</svg>
