<svg xmlns="http://www.w3.org/2000/svg" xmlns:xlink="http://www.w3.org/1999/xlink" preserveAspectRatio="xMidYMid" width="50" height="70" viewBox="0 0 50 70">
  <defs>
    <style>

      .cls-2 {
        fill: #ffffff;
      }
    </style>
  </defs>
  <path d="M-0.001,57.547 C-0.001,57.547 1.326,55.341 1.326,55.341 C6.577,46.616 6.642,24.926 6.642,24.709 C6.642,14.903 14.207,6.869 23.688,6.379 C23.688,6.379 23.688,1.457 23.688,1.457 C23.688,0.658 24.323,0.009 25.105,0.009 C25.886,0.009 26.524,0.658 26.524,1.457 C26.524,1.457 26.524,6.412 26.524,6.412 C35.766,7.153 43.068,15.075 43.068,24.709 C43.068,24.926 43.135,46.616 48.383,55.341 C48.383,55.341 49.714,57.547 49.714,57.547 C49.714,57.547 -0.001,57.547 -0.001,57.547 ZM40.235,24.709 C40.235,16.186 33.449,9.252 25.105,9.252 C25.105,9.252 24.605,9.252 24.605,9.252 C16.264,9.252 9.477,16.186 9.477,24.709 C9.477,25.566 9.419,44.416 4.876,54.651 C4.876,54.651 44.833,54.651 44.833,54.651 C40.291,44.416 40.235,25.566 40.235,24.709 ZM18.591,59.944 C19.375,59.944 20.010,60.592 20.010,61.392 C20.010,64.123 22.183,66.345 24.853,66.345 C27.529,66.345 29.703,64.123 29.703,61.392 C29.703,60.592 30.337,59.944 31.119,59.944 C31.901,59.944 32.538,60.592 32.538,61.392 C32.538,65.719 29.090,69.241 24.853,69.241 C20.620,69.241 17.175,65.719 17.175,61.392 C17.175,60.592 17.806,59.944 18.591,59.944 Z" id="path-1" class="cls-2" fill-rule="evenodd"/>
</svg>
