<svg xmlns="http://www.w3.org/2000/svg" xmlns:xlink="http://www.w3.org/1999/xlink" preserveAspectRatio="xMidYMid" width="83" height="58" viewBox="0 0 83 58">
  <defs>
    <style>

      .cls-2 {
        fill: #ffffff;
      }
    </style>
  </defs>
  <path d="M76.488,57.111 C76.488,57.111 5.825,57.111 5.825,57.111 C2.621,57.111 0.013,54.478 0.013,51.243 C0.013,51.243 0.013,18.843 0.013,18.843 C0.013,15.609 2.621,12.976 5.825,12.976 C5.825,12.976 20.980,12.976 20.980,12.976 C21.970,12.976 22.893,12.528 23.509,11.748 C23.509,11.748 31.080,2.198 31.080,2.198 C32.187,0.798 33.845,-0.004 35.620,-0.004 C35.620,-0.004 46.695,-0.004 46.695,-0.004 C48.470,-0.004 50.126,0.798 51.232,2.198 C51.232,2.198 58.801,11.748 58.801,11.748 C59.420,12.528 60.343,12.976 61.333,12.976 C61.333,12.976 76.488,12.976 76.488,12.976 C79.694,12.976 82.300,15.609 82.300,18.843 C82.300,18.843 82.300,51.243 82.300,51.243 C82.300,54.478 79.694,57.111 76.488,57.111 ZM10.300,15.571 C10.300,15.571 5.825,15.571 5.825,15.571 C4.038,15.571 2.585,17.041 2.585,18.843 C2.585,18.843 2.585,51.243 2.585,51.243 C2.585,53.048 4.038,54.515 5.825,54.515 C5.825,54.515 10.300,54.515 10.300,54.515 C10.300,54.515 10.300,15.571 10.300,15.571 ZM79.728,18.843 C79.728,17.041 78.275,15.571 76.488,15.571 C76.488,15.571 61.333,15.571 61.333,15.571 C59.558,15.571 57.906,14.769 56.793,13.369 C56.793,13.369 49.224,3.819 49.224,3.819 C48.608,3.039 47.683,2.591 46.695,2.591 C46.695,2.591 35.620,2.591 35.620,2.591 C34.630,2.591 33.704,3.039 33.088,3.819 C33.088,3.819 25.520,13.369 25.520,13.369 C24.410,14.769 22.758,15.571 20.980,15.571 C20.980,15.571 12.872,15.571 12.872,15.571 C12.872,15.571 12.872,54.515 12.872,54.515 C12.872,54.515 76.488,54.515 76.488,54.515 C78.275,54.515 79.728,53.048 79.728,51.243 C79.728,51.243 79.728,18.843 79.728,18.843 ZM69.444,25.958 C69.106,25.958 68.785,25.828 68.530,25.581 C68.297,25.333 68.156,24.995 68.156,24.660 C68.156,24.321 68.297,23.984 68.530,23.739 C69.018,23.255 69.867,23.255 70.357,23.739 C70.587,23.984 70.728,24.321 70.728,24.660 C70.728,24.995 70.587,25.333 70.357,25.581 C70.109,25.814 69.775,25.958 69.444,25.958 ZM43.412,46.510 C42.661,46.653 41.904,46.727 41.156,46.727 C37.699,46.725 34.449,45.182 32.239,42.489 C30.032,39.799 29.143,36.256 29.796,32.769 C30.667,28.147 34.327,24.451 38.903,23.577 C43.115,22.771 47.385,24.323 50.074,27.597 C52.281,30.286 53.170,33.831 52.514,37.318 C51.646,41.940 47.989,45.635 43.412,46.510 ZM48.090,29.252 C46.374,27.157 43.845,25.958 41.156,25.958 C40.571,25.958 39.973,26.015 39.381,26.128 C35.835,26.806 32.999,29.669 32.325,33.253 C31.813,35.977 32.506,38.742 34.222,40.833 C35.942,42.928 38.468,44.129 41.156,44.129 C41.745,44.129 42.340,44.073 42.931,43.960 C46.478,43.280 49.313,40.417 49.991,36.834 C50.500,34.109 49.810,31.345 48.090,29.252 Z" id="path-1" class="cls-2" fill-rule="evenodd"/>
</svg>
