<svg xmlns="http://www.w3.org/2000/svg" xmlns:xlink="http://www.w3.org/1999/xlink" preserveAspectRatio="xMidYMid" width="43" height="83" viewBox="0 0 43 83">
  <defs>
    <style>

      .cls-2 {
        fill: #ffffff;
      }
    </style>
  </defs>
  <path d="M0.365,82.395 C0.623,82.655 0.957,82.783 1.294,82.783 C1.628,82.783 1.968,82.655 2.226,82.395 C2.226,82.395 41.901,42.321 41.901,42.321 C42.149,42.070 42.287,41.733 42.287,41.381 C42.287,41.028 42.149,40.690 41.901,40.441 C41.901,40.441 2.226,0.369 2.226,0.369 C1.711,-0.151 0.877,-0.151 0.365,0.369 C-0.150,0.887 -0.150,1.728 0.365,2.246 C0.365,2.246 39.112,41.381 39.112,41.381 C39.112,41.381 0.365,80.515 0.365,80.515 C-0.150,81.035 -0.150,81.875 0.365,82.395 Z" id="path-1" class="cls-2" fill-rule="evenodd"/>
</svg>
