<svg xmlns="http://www.w3.org/2000/svg" xmlns:xlink="http://www.w3.org/1999/xlink" preserveAspectRatio="xMidYMid" width="96" height="41" viewBox="0 0 96 41">
  <defs>
    <style>

      .cls-2 {
        fill: #ffffff;
      }
    </style>
  </defs>
  <path d="M88.890,20.654 C82.154,17.026 53.168,3.512 44.124,0.088 C43.570,-0.116 42.944,0.028 42.542,0.466 C39.465,3.822 31.729,7.444 24.588,7.444 C21.833,7.444 18.050,6.866 15.689,4.113 C13.906,2.041 11.556,0.901 9.064,0.901 C5.028,0.901 0.705,4.073 0.210,10.992 C0.196,11.074 0.161,11.151 0.161,11.237 C0.161,11.297 0.186,11.349 0.196,11.407 C0.179,11.711 0.161,12.010 0.161,12.326 C0.161,14.430 0.102,23.337 0.057,30.364 C0.037,30.466 -0.005,30.563 -0.005,30.670 C-0.005,30.771 0.033,30.860 0.054,30.955 C0.019,35.662 -0.005,39.387 -0.005,39.387 C-0.008,39.775 0.144,40.147 0.417,40.423 C0.691,40.698 1.065,40.851 1.449,40.851 C1.449,40.851 87.779,40.851 87.779,40.851 C92.531,40.851 95.258,37.020 95.258,30.340 C95.258,26.129 93.175,22.961 88.890,20.654 ZM92.282,29.216 C92.282,29.216 45.069,29.216 45.069,29.216 C45.079,20.402 46.017,16.710 51.642,16.710 C53.297,16.710 55.003,16.770 56.654,16.827 C62.701,17.038 66.498,17.083 68.246,15.393 C68.592,15.062 68.828,14.672 68.980,14.243 C77.076,18.015 84.514,21.602 87.512,23.217 C90.444,24.795 91.949,26.674 92.282,29.216 ZM9.064,3.812 C10.694,3.812 12.262,4.590 13.481,6.007 C15.921,8.850 19.763,10.353 24.588,10.353 C31.397,10.353 39.659,7.242 43.979,3.151 C48.762,5.032 57.675,9.013 66.304,13.003 C66.287,13.094 66.252,13.179 66.252,13.276 C65.654,14.229 60.084,14.036 56.751,13.920 C55.069,13.862 53.331,13.800 51.642,13.800 C42.241,13.800 42.158,22.298 42.158,29.216 C42.158,29.216 25.928,29.216 25.928,29.216 C25.914,29.115 25.921,29.015 25.886,28.915 C22.719,19.876 14.055,10.751 3.297,9.871 C4.042,5.742 6.624,3.812 9.064,3.812 ZM3.065,12.770 C12.321,13.522 19.856,21.307 22.885,29.216 C22.885,29.216 2.972,29.216 2.972,29.216 C3.013,22.815 3.062,15.314 3.065,12.770 ZM87.779,37.941 C87.779,37.941 2.913,37.941 2.913,37.941 C2.923,36.636 2.934,34.555 2.955,32.124 C2.955,32.124 92.268,32.124 92.268,32.124 C91.994,35.083 90.921,37.941 87.779,37.941 Z" id="path-1" class="cls-2" fill-rule="evenodd"/>
</svg>
