<svg xmlns="http://www.w3.org/2000/svg" xmlns:xlink="http://www.w3.org/1999/xlink" preserveAspectRatio="xMidYMid" width="84" height="86" viewBox="0 0 84 86">
  <defs>
    <style>

      .cls-2 {
        fill: #ffffff;
      }
    </style>
  </defs>
  <path d="M78.906,51.811 C78.906,51.811 73.861,51.811 73.861,51.811 C72.730,51.811 71.721,52.540 71.362,53.629 C71.362,53.629 70.406,56.534 70.406,56.534 C70.087,57.496 70.329,58.540 71.041,59.255 C71.041,59.255 74.416,62.663 74.416,62.663 C75.409,63.667 75.957,65.002 75.957,66.423 C75.957,67.841 75.409,69.177 74.416,70.181 C74.416,70.181 69.477,75.169 69.477,75.169 C68.481,76.173 67.160,76.726 65.756,76.726 C64.349,76.726 63.025,76.173 62.034,75.169 C62.034,75.169 58.659,71.761 58.659,71.761 C57.961,71.056 56.906,70.804 55.965,71.119 C55.965,71.119 53.087,72.088 53.087,72.088 C52.011,72.450 51.287,73.464 51.287,74.609 C51.287,74.609 51.287,79.703 51.287,79.703 C51.287,82.635 48.927,85.020 46.024,85.020 C46.024,85.020 38.137,85.020 38.137,85.020 C35.234,85.020 32.873,82.635 32.873,79.703 C32.873,79.703 32.873,74.609 32.873,74.609 C32.873,73.464 32.150,72.450 31.071,72.088 C31.071,72.088 28.196,71.119 28.196,71.119 C27.261,70.804 26.200,71.056 25.501,71.761 C25.501,71.761 22.126,75.169 22.126,75.169 C21.130,76.173 19.812,76.726 18.405,76.726 C16.998,76.726 15.677,76.173 14.683,75.169 C14.683,75.169 9.742,70.181 9.742,70.181 C8.752,69.177 8.200,67.841 8.200,66.423 C8.200,65.002 8.752,63.667 9.742,62.663 C9.742,62.663 13.120,59.255 13.120,59.255 C13.825,58.540 14.070,57.496 13.752,56.534 C13.752,56.534 12.795,53.627 12.795,53.627 C12.437,52.540 11.431,51.811 10.297,51.811 C10.297,51.811 5.254,51.811 5.254,51.811 C2.351,51.811 -0.012,49.426 -0.012,46.492 C-0.012,46.492 -0.012,38.528 -0.012,38.528 C-0.012,35.597 2.351,33.212 5.254,33.212 C5.254,33.212 10.297,33.212 10.297,33.212 C11.431,33.212 12.437,32.480 12.798,31.394 C12.798,31.394 13.752,28.488 13.752,28.488 C14.070,27.526 13.825,26.482 13.120,25.766 C13.120,25.766 9.742,22.358 9.742,22.358 C8.752,21.353 8.200,20.020 8.200,18.599 C8.200,17.179 8.752,15.845 9.742,14.841 C9.742,14.841 14.683,9.852 14.683,9.852 C15.677,8.849 16.998,8.296 18.405,8.296 C19.812,8.296 21.130,8.849 22.126,9.852 C22.126,9.852 25.501,13.261 25.501,13.261 C26.200,13.967 27.261,14.219 28.196,13.903 C28.196,13.903 31.071,12.935 31.071,12.935 C32.150,12.572 32.873,11.558 32.873,10.413 C32.873,10.413 32.873,5.319 32.873,5.319 C32.873,2.387 35.234,0.002 38.137,0.002 C38.137,0.002 46.024,0.002 46.024,0.002 C48.927,0.002 51.287,2.387 51.287,5.319 C51.287,5.319 51.287,10.413 51.287,10.413 C51.287,11.558 52.011,12.572 53.087,12.935 C53.087,12.935 55.965,13.903 55.965,13.903 C56.906,14.219 57.961,13.967 58.659,13.261 C58.659,13.261 62.034,9.852 62.034,9.852 C63.025,8.849 64.349,8.296 65.756,8.296 C67.160,8.296 68.481,8.849 69.477,9.852 C69.477,9.852 74.416,14.841 74.416,14.841 C75.409,15.845 75.957,17.179 75.957,18.599 C75.957,20.020 75.409,21.353 74.416,22.358 C74.416,22.358 71.041,25.766 71.041,25.766 C70.329,26.482 70.087,27.526 70.406,28.488 C70.406,28.488 71.365,31.394 71.365,31.394 C71.721,32.480 72.730,33.212 73.861,33.212 C73.861,33.212 78.906,33.212 78.906,33.212 C81.809,33.212 84.170,35.597 84.170,38.528 C84.170,38.528 84.170,46.492 84.170,46.492 C84.170,49.426 81.809,51.811 78.906,51.811 ZM81.539,38.528 C81.539,37.061 80.356,35.869 78.906,35.869 C78.906,35.869 73.861,35.869 73.861,35.869 C71.595,35.869 69.588,34.408 68.867,32.235 C68.867,32.235 67.911,29.327 67.911,29.327 C67.276,27.405 67.764,25.322 69.180,23.888 C69.180,23.888 72.555,20.481 72.555,20.481 C73.051,19.978 73.327,19.311 73.327,18.599 C73.327,17.889 73.051,17.222 72.555,16.719 C72.555,16.719 67.616,11.731 67.616,11.731 C66.623,10.728 64.888,10.728 63.892,11.731 C63.892,11.731 60.517,15.139 60.517,15.139 C59.125,16.548 57.004,17.053 55.131,16.423 C55.131,16.423 52.256,15.456 52.256,15.456 C50.104,14.730 48.657,12.704 48.657,10.413 C48.657,10.413 48.657,5.319 48.657,5.319 C48.657,3.852 47.474,2.658 46.024,2.658 C46.024,2.658 38.137,2.658 38.137,2.658 C36.684,2.658 35.504,3.852 35.504,5.319 C35.504,5.319 35.504,10.413 35.504,10.413 C35.504,12.704 34.057,14.730 31.905,15.456 C31.905,15.456 29.026,16.423 29.026,16.423 C27.153,17.055 25.035,16.550 23.641,15.139 C23.641,15.139 20.269,11.731 20.269,11.731 C19.272,10.728 17.537,10.728 16.541,11.731 C16.541,11.731 11.606,16.719 11.606,16.719 C11.106,17.222 10.833,17.889 10.833,18.599 C10.833,19.311 11.106,19.978 11.606,20.481 C11.606,20.481 14.978,23.888 14.978,23.888 C16.397,25.322 16.884,27.405 16.250,29.327 C16.250,29.327 15.290,32.233 15.290,32.233 C14.573,34.408 12.565,35.869 10.297,35.869 C10.297,35.869 5.254,35.869 5.254,35.869 C3.801,35.869 2.621,37.061 2.621,38.528 C2.621,38.528 2.621,46.492 2.621,46.492 C2.621,47.959 3.801,49.153 5.254,49.153 C5.254,49.153 10.297,49.153 10.297,49.153 C12.565,49.153 14.573,50.615 15.290,52.787 C15.290,52.787 16.250,55.693 16.250,55.693 C16.884,57.617 16.397,59.700 14.978,61.132 C14.978,61.132 11.606,64.541 11.606,64.541 C11.106,65.044 10.833,65.711 10.833,66.423 C10.833,67.132 11.106,67.800 11.606,68.302 C11.606,68.302 16.541,73.291 16.541,73.291 C17.537,74.294 19.272,74.294 20.269,73.291 C20.269,73.291 23.641,69.882 23.641,69.882 C24.634,68.879 25.958,68.326 27.362,68.326 C27.929,68.326 28.490,68.417 29.026,68.597 C29.026,68.597 31.905,69.566 31.905,69.566 C34.057,70.292 35.504,72.318 35.504,74.609 C35.504,74.609 35.504,79.703 35.504,79.703 C35.504,81.170 36.684,82.362 38.137,82.362 C38.137,82.362 46.024,82.362 46.024,82.362 C47.474,82.362 48.657,81.170 48.657,79.703 C48.657,79.703 48.657,74.609 48.657,74.609 C48.657,72.318 50.104,70.292 52.256,69.566 C52.256,69.566 55.131,68.597 55.131,68.597 C57.004,67.967 59.125,68.474 60.517,69.882 C60.517,69.882 63.892,73.291 63.892,73.291 C64.888,74.294 66.623,74.294 67.616,73.291 C67.616,73.291 72.555,68.302 72.555,68.302 C73.051,67.800 73.327,67.132 73.327,66.423 C73.327,65.711 73.051,65.044 72.555,64.541 C72.555,64.541 69.180,61.132 69.180,61.132 C67.764,59.700 67.276,57.617 67.911,55.693 C67.911,55.693 68.867,52.789 68.867,52.789 C69.588,50.615 71.595,49.153 73.861,49.153 C73.861,49.153 78.906,49.153 78.906,49.153 C80.356,49.153 81.539,47.959 81.539,46.492 C81.539,46.492 81.539,38.528 81.539,38.528 ZM44.169,51.574 C43.477,51.730 42.775,51.811 42.082,51.811 C39.274,51.809 36.656,50.540 34.897,48.327 C33.137,46.113 32.484,43.224 33.103,40.400 C33.864,36.940 36.564,34.213 39.988,33.446 C43.489,32.660 47.069,33.934 49.264,36.695 C51.024,38.909 51.677,41.798 51.057,44.622 C50.297,48.080 47.593,50.808 44.169,51.574 ZM47.213,38.359 C45.953,36.775 44.084,35.869 42.082,35.869 C41.576,35.869 41.067,35.927 40.558,36.040 C38.167,36.576 36.202,38.560 35.672,40.975 C35.225,43.009 35.691,45.081 36.947,46.663 C38.204,48.245 40.074,49.153 42.082,49.153 C42.582,49.153 43.093,49.095 43.599,48.982 C45.990,48.446 47.955,46.462 48.485,44.047 C48.933,42.013 48.467,39.939 47.213,38.359 Z" id="path-1" class="cls-2" fill-rule="evenodd"/>
</svg>
