<svg xmlns="http://www.w3.org/2000/svg" xmlns:xlink="http://www.w3.org/1999/xlink" preserveAspectRatio="xMidYMid" width="84" height="86" viewBox="0 0 84 86">
  <defs>
    <style>

      .cls-2 {
        fill: #ffffff;
      }
    </style>
  </defs>
  <path d="M67.085,-0.003 C57.656,-0.003 49.986,7.744 49.986,17.266 C49.986,20.856 51.078,24.191 52.938,26.955 C52.938,26.955 24.473,45.254 24.473,45.254 C21.871,42.736 18.352,41.178 14.474,41.178 C6.495,41.178 0.005,47.733 0.005,55.790 C0.005,63.847 6.495,70.401 14.474,70.401 C19.909,70.401 24.654,67.353 27.125,62.863 C27.125,62.863 51.323,72.639 51.323,72.639 C51.317,72.780 51.301,72.918 51.301,73.059 C51.301,79.651 56.611,85.014 63.140,85.014 C69.666,85.014 74.978,79.651 74.978,73.059 C74.978,66.466 69.666,61.104 63.140,61.104 C57.680,61.104 53.088,64.857 51.724,69.939 C51.724,69.939 28.182,60.429 28.182,60.429 C28.667,58.969 28.942,57.413 28.942,55.790 C28.942,52.614 27.922,49.683 26.214,47.283 C26.214,47.283 54.606,29.035 54.606,29.035 C57.729,32.411 62.162,34.535 67.085,34.535 C76.514,34.535 84.184,26.789 84.184,17.266 C84.184,7.744 76.514,-0.003 67.085,-0.003 ZM63.140,63.761 C68.216,63.761 72.348,67.930 72.348,73.059 C72.348,78.188 68.216,82.358 63.140,82.358 C58.064,82.358 53.935,78.188 53.935,73.059 C53.935,67.930 58.064,63.761 63.140,63.761 ZM25.512,60.077 C25.335,60.216 25.178,60.386 25.089,60.608 C25.010,60.807 24.997,61.009 25.013,61.209 C23.051,65.082 19.069,67.745 14.474,67.745 C7.945,67.745 2.635,62.382 2.635,55.790 C2.635,49.197 7.945,43.835 14.474,43.835 C21.000,43.835 26.312,49.197 26.312,55.790 C26.312,57.302 26.021,58.744 25.512,60.077 ZM67.085,31.878 C59.109,31.878 52.616,25.323 52.616,17.266 C52.616,9.209 59.109,2.654 67.085,2.654 C75.064,2.654 81.554,9.209 81.554,17.266 C81.554,25.323 75.064,31.878 67.085,31.878 Z" id="path-1" class="cls-2" fill-rule="evenodd"/>
</svg>
