<svg xmlns="http://www.w3.org/2000/svg" xmlns:xlink="http://www.w3.org/1999/xlink" preserveAspectRatio="xMidYMid" width="83" height="83" viewBox="0 0 83 83">
  <defs>
    <style>

      .cls-2 {
        fill: #ffffff;
      }
    </style>
  </defs>
  <path d="M81.887,0.224 C81.001,-0.244 79.917,0.094 79.450,0.975 C79.450,0.975 56.207,44.899 56.207,44.899 C53.248,44.909 48.544,42.648 45.480,39.569 C43.580,37.652 42.580,35.691 42.701,34.119 C42.701,34.119 64.362,2.848 64.362,2.848 C64.933,2.028 64.729,0.904 63.909,0.336 C63.085,-0.234 61.967,-0.027 61.396,0.793 C61.396,0.793 39.489,32.420 39.489,32.420 C39.347,32.628 39.247,32.866 39.202,33.115 C39.091,33.696 39.060,34.293 39.101,34.900 C23.944,36.465 20.721,47.163 17.603,57.519 C14.782,66.884 12.113,75.730 1.206,79.398 C0.372,79.679 -0.140,80.526 0.002,81.400 C0.144,82.271 0.898,82.911 1.781,82.911 C38.603,82.911 56.491,77.700 57.156,48.451 C57.332,48.432 57.502,48.408 57.671,48.377 C58.215,48.277 58.682,47.936 58.942,47.445 C58.942,47.445 82.638,2.661 82.638,2.661 C83.105,1.782 82.770,0.689 81.887,0.224 ZM9.358,79.227 C16.398,74.009 18.845,65.899 21.054,58.559 C24.131,48.358 26.793,39.518 40.157,38.427 C40.801,39.668 41.728,40.911 42.923,42.113 C45.598,44.806 49.752,47.307 53.552,48.176 C53.068,72.970 39.842,78.541 9.358,79.227 Z" id="path-1" class="cls-2" fill-rule="evenodd"/>
</svg>
