<svg xmlns="http://www.w3.org/2000/svg" xmlns:xlink="http://www.w3.org/1999/xlink" preserveAspectRatio="xMidYMid" width="66" height="70" viewBox="0 0 66 70">
  <defs>
    <style>

      .cls-2 {
        fill: #ffffff;
      }
    </style>
  </defs>
  <path d="M63.358,23.252 C63.358,23.252 58.941,27.714 58.941,27.714 C57.883,28.782 56.112,28.425 54.530,26.827 C54.530,26.827 38.657,10.792 38.657,10.792 C37.076,9.195 36.723,7.403 37.778,6.335 C37.778,6.335 42.195,1.873 42.195,1.873 C45.398,-1.361 50.858,-0.086 54.110,3.199 C54.110,3.199 62.046,11.216 62.046,11.216 C65.295,14.499 66.561,20.018 63.358,23.252 ZM60.280,13.000 C60.280,13.000 52.344,4.983 52.344,4.983 C50.011,2.627 46.030,1.565 43.960,3.654 C43.960,3.654 39.700,7.957 39.700,7.957 C39.779,8.177 40.015,8.594 40.426,9.008 C40.426,9.008 56.295,25.042 56.295,25.042 C56.706,25.456 57.117,25.692 57.338,25.774 C57.338,25.774 61.596,21.470 61.596,21.470 C63.665,19.380 62.610,15.356 60.280,13.000 ZM14.790,45.590 C14.306,45.099 14.306,44.300 14.793,43.808 C14.793,43.808 39.531,18.818 39.531,18.818 C40.018,18.324 40.809,18.324 41.297,18.816 C41.784,19.308 41.784,20.106 41.294,20.598 C41.294,20.598 16.559,45.589 16.559,45.589 C16.072,46.080 15.281,46.082 14.790,45.590 ZM46.587,24.160 C47.078,24.652 47.075,25.450 46.587,25.944 C46.587,25.944 21.847,50.933 21.847,50.933 C21.359,51.427 20.572,51.429 20.084,50.934 C19.597,50.443 19.597,49.644 20.084,49.152 C20.084,49.152 44.822,24.162 44.822,24.162 C45.309,23.668 46.100,23.668 46.587,24.160 ZM8.604,42.935 C8.604,42.935 3.623,56.361 3.623,56.361 C3.660,56.608 3.648,56.864 3.531,57.105 C2.771,58.665 2.474,59.863 2.621,60.831 C3.019,61.625 4.184,62.916 4.819,63.176 C5.091,63.233 6.302,63.087 7.351,62.852 C7.351,62.852 7.847,62.658 7.847,62.658 C8.138,62.526 8.445,62.377 8.776,62.195 C8.969,62.087 9.171,62.055 9.374,62.057 C9.374,62.057 23.315,56.576 23.315,56.576 C23.315,56.576 50.113,29.506 50.113,29.506 C50.603,29.014 51.391,29.012 51.878,29.504 C52.366,29.996 52.363,30.794 51.878,31.287 C51.878,31.287 24.710,58.734 24.710,58.734 C24.710,58.734 8.914,64.928 8.914,64.928 C5.928,66.278 3.491,66.043 1.664,64.197 C0.803,63.328 0.368,62.370 0.193,61.421 C0.141,61.283 0.076,61.138 0.049,61.010 C-0.089,60.388 0.070,59.239 0.230,58.381 C0.230,58.381 0.288,58.169 0.288,58.169 C0.288,58.169 6.455,41.541 6.455,41.541 C6.455,41.541 34.243,13.472 34.243,13.472 C34.731,12.979 35.518,12.977 36.006,13.470 C36.493,13.964 36.493,14.760 36.006,15.254 C36.006,15.254 8.604,42.935 8.604,42.935 ZM56.623,69.241 C56.623,69.241 5.196,69.241 5.196,69.241 C5.196,69.241 5.196,67.510 5.196,67.510 C5.196,67.510 56.623,67.510 56.623,67.510 C56.623,67.510 56.623,69.241 56.623,69.241 Z" id="path-1" class="cls-2" fill-rule="evenodd"/>
</svg>
