<svg xmlns="http://www.w3.org/2000/svg" xmlns:xlink="http://www.w3.org/1999/xlink" preserveAspectRatio="xMidYMid" width="76" height="82" viewBox="0 0 76 82">
  <defs>
    <style>

      .cls-2 {
        fill: #ffffff;
      }
    </style>
  </defs>
  <path d="M40.539,0.003 C40.539,0.003 5.143,0.003 5.143,0.003 C2.310,0.003 0.005,2.349 0.005,5.232 C0.005,5.232 0.005,76.121 0.005,76.121 C0.005,79.004 2.310,81.350 5.143,81.350 C5.143,81.350 40.539,81.350 40.539,81.350 C43.371,81.350 45.679,79.004 45.679,76.121 C45.679,76.121 45.679,5.232 45.679,5.232 C45.679,2.349 43.371,0.003 40.539,0.003 M2.859,5.232 C2.859,3.951 3.883,2.908 5.143,2.908 C5.143,2.908 40.539,2.908 40.539,2.908 C41.799,2.908 42.823,3.951 42.823,5.232 C42.823,5.232 42.823,11.624 42.823,11.624 C42.823,11.624 2.859,11.624 2.859,11.624 C2.859,11.624 2.859,5.232 2.859,5.232 ZM42.823,66.824 C42.823,66.824 2.859,66.824 2.859,66.824 C2.859,66.824 2.859,14.529 2.859,14.529 C2.859,14.529 42.823,14.529 42.823,14.529 C42.823,14.529 42.823,66.824 42.823,66.824 ZM42.823,76.121 C42.823,77.402 41.799,78.444 40.539,78.444 C40.539,78.444 5.143,78.444 5.143,78.444 C3.883,78.444 2.859,77.402 2.859,76.121 C2.859,76.121 2.859,69.729 2.859,69.729 C2.859,69.729 42.823,69.729 42.823,69.729 C42.823,69.729 42.823,76.121 42.823,76.121 ZM32.832,7.266 C32.832,8.069 32.195,8.719 31.404,8.719 C31.404,8.719 17.132,8.719 17.132,8.719 C16.344,8.719 15.703,8.069 15.703,7.266 C15.703,6.463 16.344,5.813 17.132,5.813 C17.132,5.813 31.404,5.813 31.404,5.813 C32.195,5.813 32.832,6.463 32.832,7.266 M19.985,74.087 C19.985,72.485 21.267,71.182 22.842,71.182 C24.415,71.182 25.696,72.485 25.696,74.087 C25.696,75.688 24.415,76.992 22.842,76.992 C21.267,76.992 19.985,75.688 19.985,74.087 M66.221,60.588 C65.942,60.872 65.577,61.014 65.212,61.014 C64.847,61.014 64.483,60.872 64.204,60.588 C63.646,60.020 63.646,59.101 64.204,58.533 C75.365,47.172 75.365,28.690 64.204,17.326 C63.646,16.760 63.646,15.840 64.204,15.272 C64.761,14.705 65.663,14.705 66.221,15.272 C78.497,27.766 78.497,48.094 66.221,60.588 M60.737,55.005 C60.455,55.289 60.093,55.431 59.728,55.431 C59.360,55.431 58.995,55.289 58.717,55.005 C58.159,54.438 58.159,53.519 58.717,52.951 C66.855,44.668 66.855,31.191 58.717,22.909 C58.159,22.341 58.159,21.423 58.717,20.854 C59.274,20.287 60.179,20.287 60.737,20.854 C69.985,30.269 69.985,45.590 60.737,55.005 M55.250,49.423 C54.974,49.707 54.606,49.849 54.241,49.849 C53.876,49.849 53.512,49.707 53.233,49.423 C52.675,48.856 52.675,47.936 53.233,47.369 C58.346,42.165 58.346,33.695 53.233,28.491 C52.675,27.923 52.675,27.004 53.233,26.437 C53.790,25.869 54.695,25.869 55.250,26.437 C61.478,32.773 61.478,43.087 55.250,49.423 " id="path-1" class="cls-2" fill-rule="evenodd"/>
</svg>
