<svg xmlns="http://www.w3.org/2000/svg" xmlns:xlink="http://www.w3.org/1999/xlink" preserveAspectRatio="xMidYMid" width="85" height="86" viewBox="0 0 85 86">
  <defs>
    <style>

      .cls-2 {
        fill: #ffffff;
      }
    </style>
  </defs>
  <path d="M42.460,0.012 C19.047,0.012 -0.002,19.250 -0.002,42.895 C-0.002,66.541 19.047,85.778 42.460,85.778 C65.870,85.778 84.922,66.541 84.922,42.895 C84.922,19.250 65.870,0.012 42.460,0.012 ZM20.638,76.520 C23.093,73.094 26.594,71.564 31.989,71.564 C35.180,71.564 38.883,68.948 38.883,65.576 C38.883,65.576 38.883,60.234 38.883,60.234 C40.035,60.391 41.228,60.481 42.457,60.481 C43.490,60.481 44.483,60.408 45.458,60.296 C45.458,60.296 45.458,65.576 45.458,65.576 C45.458,68.948 49.317,71.564 52.640,71.564 C59.522,71.564 62.302,74.296 63.958,76.676 C63.967,76.691 63.982,76.695 63.994,76.708 C57.781,80.758 50.387,83.120 42.460,83.120 C34.407,83.120 26.913,80.687 20.638,76.520 ZM30.990,39.282 C30.990,39.282 30.990,38.915 30.990,38.915 C30.990,35.447 31.078,30.701 32.550,26.958 C34.193,22.770 37.473,20.737 42.377,20.737 C47.285,20.737 50.393,22.770 52.039,26.956 C53.511,30.695 53.351,35.442 53.351,38.907 C53.351,38.907 53.351,39.282 53.351,39.282 C53.351,39.584 53.606,39.876 53.796,40.112 C53.796,40.112 60.555,48.452 60.555,48.452 C58.167,52.468 51.782,57.825 42.457,57.825 C33.132,57.825 26.747,52.468 24.356,48.452 C24.356,48.452 30.833,40.112 30.833,40.112 C31.020,39.876 30.990,39.584 30.990,39.282 ZM66.140,75.217 C66.125,75.196 66.125,75.173 66.110,75.152 C63.151,70.890 58.872,68.907 52.640,68.907 C50.694,68.907 48.091,67.262 48.091,65.576 C48.091,65.576 48.091,59.869 48.091,59.869 C55.605,58.208 61.076,53.419 63.308,48.908 C63.541,48.444 63.483,47.889 63.161,47.482 C63.161,47.482 56.291,38.816 56.291,38.816 C56.297,35.143 56.285,30.154 54.642,25.973 C52.582,20.737 48.481,18.080 42.457,18.080 C36.434,18.080 32.332,20.737 30.272,25.977 C28.632,30.156 28.617,35.143 28.620,38.816 C28.620,38.816 21.754,47.482 21.754,47.482 C21.432,47.889 21.373,48.444 21.603,48.908 C23.780,53.302 29.034,57.948 36.250,59.723 C36.250,59.723 36.250,65.576 36.250,65.576 C36.250,67.340 33.868,68.907 31.989,68.907 C25.742,68.907 21.450,70.837 18.492,74.981 C18.489,74.985 18.489,74.989 18.486,74.994 C8.864,67.644 2.629,55.992 2.629,42.895 C2.629,20.713 20.500,2.670 42.460,2.670 C64.424,2.670 82.289,20.713 82.289,42.895 C82.289,56.126 75.931,67.880 66.140,75.217 Z" id="path-1" class="cls-2" fill-rule="evenodd"/>
</svg>
