<svg xmlns="http://www.w3.org/2000/svg" xmlns:xlink="http://www.w3.org/1999/xlink" preserveAspectRatio="xMidYMid" width="84" height="85" viewBox="0 0 84 85">
  <defs>
    <style>

      .cls-2 {
        fill: #ffffff;
      }
    </style>
  </defs>
  <path d="M82.367,25.165 C82.367,25.165 77.181,19.960 77.181,19.960 C76.577,19.350 75.621,19.301 74.952,19.836 C73.453,21.039 71.780,21.650 69.977,21.650 C65.640,21.650 62.111,18.108 62.111,13.754 C62.111,11.945 62.721,10.263 63.923,8.758 C64.456,8.091 64.401,7.125 63.797,6.520 C63.797,6.520 58.614,1.312 58.614,1.312 C56.848,-0.461 53.657,-0.457 51.901,1.309 C51.901,1.309 42.091,11.095 42.091,11.095 C41.947,11.171 41.812,11.271 41.690,11.392 C41.573,11.509 41.478,11.640 41.402,11.782 C41.402,11.782 1.377,51.705 1.377,51.705 C0.494,52.592 0.007,53.789 0.007,55.076 C0.007,56.367 0.494,57.565 1.377,58.450 C1.377,58.450 6.561,63.657 6.561,63.657 C7.164,64.260 8.124,64.314 8.789,63.781 C10.383,62.502 12.210,61.798 13.936,61.798 C18.270,61.798 21.796,65.339 21.796,69.692 C21.796,71.598 21.118,73.407 19.886,74.783 C19.288,75.448 19.316,76.462 19.944,77.093 C19.944,77.093 25.134,82.302 25.134,82.302 C26.041,83.216 27.267,83.672 28.490,83.672 C29.713,83.672 30.937,83.216 31.847,82.302 C31.847,82.302 71.663,42.319 71.663,42.319 C71.844,42.238 72.016,42.133 72.163,41.987 C72.310,41.840 72.411,41.667 72.494,41.487 C72.494,41.487 82.128,31.814 82.128,31.814 C83.048,31.074 83.618,29.970 83.704,28.762 C83.799,27.425 83.312,26.114 82.367,25.165 ZM80.013,29.207 C79.952,29.258 79.891,29.307 79.835,29.365 C79.835,29.365 70.878,38.358 70.878,38.358 C70.219,37.803 69.245,37.814 68.625,38.436 C68.006,39.058 67.994,40.036 68.549,40.697 C68.549,40.697 29.480,79.927 29.480,79.927 C28.962,80.445 28.015,80.449 27.497,79.927 C27.497,79.927 23.350,75.761 23.350,75.761 C24.515,73.987 25.143,71.881 25.143,69.692 C25.143,63.486 20.116,58.439 13.936,58.439 C11.904,58.439 9.816,59.085 7.928,60.279 C7.928,60.279 3.744,56.073 3.744,56.073 C3.222,55.553 3.222,54.602 3.737,54.084 C3.737,54.084 42.925,15.000 42.925,15.000 C43.581,15.598 44.596,15.577 45.227,14.942 C45.862,14.307 45.880,13.296 45.295,12.636 C45.295,12.636 54.261,3.687 54.261,3.687 C54.782,3.168 55.726,3.168 56.247,3.687 C56.247,3.687 60.438,7.895 60.438,7.895 C59.328,9.691 58.767,11.655 58.767,13.754 C58.767,19.960 63.797,25.010 69.977,25.010 C72.068,25.010 74.024,24.447 75.811,23.334 C75.811,23.334 80.001,27.540 80.001,27.540 C80.255,27.796 80.390,28.163 80.369,28.522 C80.354,28.725 80.280,29.009 80.013,29.207 ZM52.259,19.629 C52.915,20.284 52.915,21.349 52.259,22.004 C51.934,22.331 51.505,22.496 51.076,22.496 C50.650,22.496 50.221,22.331 49.893,22.004 C49.893,22.004 47.548,19.646 47.548,19.646 C46.895,18.990 46.895,17.926 47.548,17.271 C48.201,16.615 49.258,16.615 49.914,17.271 C49.914,17.271 52.259,19.629 52.259,19.629 ZM59.307,26.702 C59.960,27.359 59.960,28.423 59.307,29.079 C58.979,29.408 58.549,29.571 58.123,29.571 C57.694,29.571 57.268,29.408 56.940,29.079 C56.940,29.079 54.595,26.721 54.595,26.721 C53.939,26.065 53.939,25.001 54.595,24.346 C55.245,23.688 56.306,23.688 56.959,24.346 C56.959,24.346 59.307,26.702 59.307,26.702 ZM66.354,33.777 C67.007,34.432 67.007,35.496 66.354,36.152 C66.026,36.481 65.597,36.644 65.168,36.644 C64.742,36.644 64.315,36.481 63.987,36.152 C63.987,36.152 61.636,33.796 61.636,33.796 C60.983,33.140 60.983,32.074 61.636,31.419 C62.289,30.763 63.350,30.763 64.003,31.419 C64.003,31.419 66.354,33.777 66.354,33.777 Z" id="path-1" class="cls-2" fill-rule="evenodd"/>
</svg>
