<svg xmlns="http://www.w3.org/2000/svg" xmlns:xlink="http://www.w3.org/1999/xlink" preserveAspectRatio="xMidYMid" width="82" height="84" viewBox="0 0 82 84">
  <defs>
    <style>

      .cls-2 {
        fill: #ffffff;
      }
    </style>
  </defs>
  <path d="M78.888,37.285 C80.721,35.844 81.448,33.385 80.694,31.166 C80.010,29.159 78.297,27.912 76.218,27.912 C76.218,27.912 56.489,27.912 56.489,27.912 C55.082,27.912 53.344,27.183 53.105,26.494 C53.105,26.494 45.169,3.446 45.169,3.446 C44.452,1.362 42.576,0.015 40.390,0.015 C38.204,0.015 36.328,1.362 35.611,3.446 C35.611,3.446 27.675,26.494 27.675,26.494 C27.368,27.381 26.035,27.912 24.922,27.912 C24.922,27.912 5.193,27.912 5.193,27.912 C2.962,27.912 1.034,29.340 0.283,31.551 C-0.444,33.695 0.188,35.946 1.892,37.285 C1.892,37.285 18.969,50.698 18.969,50.698 C19.782,51.335 20.106,52.426 19.785,53.412 C19.785,53.412 12.063,76.802 12.063,76.802 C11.542,78.384 11.784,80.053 12.728,81.377 C13.697,82.737 15.248,83.545 16.879,83.545 C17.955,83.545 19.000,83.185 19.898,82.506 C19.898,82.506 38.934,68.086 38.934,68.086 C39.777,67.446 40.997,67.442 41.846,68.086 C41.846,68.086 60.882,82.506 60.882,82.506 C61.780,83.185 62.826,83.545 63.902,83.545 C65.532,83.545 67.080,82.737 68.052,81.377 C68.999,80.053 69.241,78.384 68.717,76.802 C68.717,76.802 60.999,53.412 60.999,53.412 C60.674,52.426 60.999,51.335 61.808,50.700 C61.808,50.700 78.888,37.285 78.888,37.285 ZM58.503,54.251 C58.503,54.251 66.219,77.640 66.219,77.640 C66.480,78.416 66.369,79.190 65.919,79.825 C65.137,80.912 63.580,81.228 62.461,80.382 C62.461,80.382 43.425,65.961 43.425,65.961 C42.545,65.292 41.494,64.939 40.390,64.939 C39.287,64.939 38.235,65.292 37.355,65.961 C37.355,65.961 18.319,80.382 18.319,80.382 C17.200,81.228 15.640,80.916 14.862,79.825 C14.411,79.192 14.304,78.417 14.558,77.640 C14.558,77.640 22.280,54.251 22.280,54.251 C22.954,52.199 22.274,49.928 20.585,48.602 C20.585,48.602 3.507,35.186 3.507,35.186 C2.533,34.420 2.487,33.252 2.772,32.414 C3.060,31.564 3.866,30.570 5.193,30.570 C5.193,30.570 24.922,30.570 24.922,30.570 C26.915,30.570 29.404,29.567 30.158,27.367 C30.158,27.367 38.094,4.321 38.094,4.321 C38.514,3.104 39.556,2.673 40.390,2.673 C41.224,2.673 42.266,3.104 42.686,4.321 C42.686,4.321 50.622,27.367 50.622,27.367 C51.425,29.699 54.644,30.570 56.489,30.570 C56.489,30.570 76.218,30.570 76.218,30.570 C77.564,30.570 78.057,31.589 78.205,32.028 C78.530,32.982 78.367,34.328 77.276,35.186 C77.276,35.186 60.196,48.602 60.196,48.602 C58.506,49.928 57.823,52.199 58.503,54.251 Z" id="path-1" class="cls-2" fill-rule="evenodd"/>
</svg>
