<svg xmlns="http://www.w3.org/2000/svg" xmlns:xlink="http://www.w3.org/1999/xlink" preserveAspectRatio="xMidYMid" width="91" height="93" viewBox="0 0 91 93">
  <defs>
    <style>

      .cls-2 {
        fill: #ffffff;
      }
    </style>
  </defs>
  <path d="M66.702,23.461 C66.702,23.461 34.792,23.461 34.792,23.461 C34.792,23.461 22.774,3.653 22.774,3.653 C21.417,1.420 18.935,-0.003 16.294,-0.003 C16.294,-0.003 1.497,-0.003 1.497,-0.003 C0.677,-0.003 0.012,0.652 0.012,1.463 C0.012,2.273 0.677,2.930 1.497,2.930 C1.497,2.930 16.294,2.930 16.294,2.930 C17.897,2.930 19.402,3.807 20.226,5.163 C20.226,5.163 31.327,23.461 31.327,23.461 C31.327,23.461 28.952,23.461 28.952,23.461 C27.274,23.461 25.775,24.074 24.951,25.516 C24.120,26.959 24.141,28.545 25.006,29.968 C25.006,29.968 43.919,60.965 43.919,60.965 C44.490,61.905 44.933,62.498 46.418,62.837 C46.418,62.837 46.418,89.455 46.418,89.455 C46.418,89.455 33.064,89.455 33.064,89.455 C32.244,89.455 31.579,90.110 31.579,90.922 C31.579,91.731 32.244,92.388 33.064,92.388 C33.064,92.388 62.586,92.388 62.586,92.388 C63.410,92.388 64.075,91.731 64.075,90.922 C64.075,90.110 63.410,89.455 62.586,89.455 C62.586,89.455 49.392,89.455 49.392,89.455 C49.392,89.455 49.392,62.839 49.392,62.839 C50.873,62.498 51.240,61.843 51.811,60.901 C51.811,60.901 70.669,29.842 70.669,29.842 C71.530,28.422 71.541,26.959 70.717,25.516 C69.886,24.074 68.381,23.461 66.702,23.461 ZM27.533,26.961 C27.675,26.715 28.094,26.393 28.952,26.393 C28.952,26.393 33.106,26.393 33.106,26.393 C33.106,26.393 40.105,38.127 40.105,38.127 C40.105,38.127 33.068,38.127 33.068,38.127 C33.068,38.127 27.554,28.818 27.554,28.818 C27.114,28.091 27.395,27.208 27.533,26.961 ZM49.225,59.753 C48.796,60.457 48.104,60.354 47.827,60.354 C47.547,60.354 46.858,60.549 46.429,59.842 C46.429,59.842 34.850,41.060 34.850,41.060 C34.850,41.060 41.887,41.060 41.887,41.060 C41.887,41.060 48.495,51.571 48.495,51.571 C48.772,52.029 49.264,52.104 49.769,52.104 C50.028,52.104 50.292,51.947 50.534,51.804 C51.236,51.387 51.465,50.801 51.039,50.107 C51.039,50.107 45.352,41.060 45.352,41.060 C45.352,41.060 60.804,41.060 60.804,41.060 C60.804,41.060 49.225,59.753 49.225,59.753 ZM68.100,28.694 C68.100,28.694 62.586,38.127 62.586,38.127 C62.586,38.127 43.566,38.127 43.566,38.127 C43.566,38.127 36.574,26.393 36.574,26.393 C36.574,26.393 66.702,26.393 66.702,26.393 C67.560,26.393 67.979,26.895 68.121,27.141 C68.263,27.386 68.540,27.967 68.100,28.694 ZM90.980,19.065 C90.980,28.735 83.012,36.603 73.216,36.603 C72.396,36.603 71.731,35.947 71.731,35.138 C71.731,34.325 72.396,33.669 73.216,33.669 C81.371,33.669 88.006,27.116 88.006,19.065 C88.006,11.009 81.371,4.459 73.216,4.459 C65.058,4.459 58.422,11.009 58.422,19.065 C58.422,19.876 57.758,20.533 56.934,20.533 C56.114,20.533 55.449,19.876 55.449,19.065 C55.449,9.393 63.417,1.526 73.216,1.526 C83.012,1.526 90.980,9.393 90.980,19.065 Z" id="path-1" class="cls-2" fill-rule="evenodd"/>
</svg>
