<svg xmlns="http://www.w3.org/2000/svg" xmlns:xlink="http://www.w3.org/1999/xlink" preserveAspectRatio="xMidYMid" width="32" height="33" viewBox="0 0 32 33">
  <defs>
    <style>

      .cls-2 {
        fill: #ffffff;
      }
    </style>
  </defs>
  <path d="M31.630,2.814 C31.630,2.814 18.608,15.964 18.608,15.964 C18.608,15.964 31.630,29.116 31.630,29.116 C31.630,29.116 28.837,31.934 28.837,31.934 C28.837,31.934 15.816,18.784 15.816,18.784 C15.816,18.784 2.797,31.934 2.797,31.934 C2.797,31.934 0.007,29.116 0.007,29.116 C0.007,29.116 13.026,15.966 13.026,15.966 C13.026,15.966 0.007,2.814 0.007,2.814 C0.007,2.814 2.797,-0.003 2.797,-0.003 C2.797,-0.003 15.816,13.148 15.816,13.148 C15.816,13.148 28.837,-0.003 28.837,-0.003 C28.837,-0.003 31.630,2.814 31.630,2.814 Z" id="path-1" class="cls-2" fill-rule="evenodd"/>
</svg>
