<svg xmlns="http://www.w3.org/2000/svg" xmlns:xlink="http://www.w3.org/1999/xlink" preserveAspectRatio="xMidYMid" width="42" height="41" viewBox="0 0 42 41">
  <defs>
    <style>

      .cls-2 {
        fill: #ffffff;
      }
    </style>
  </defs>
  <path d="M40.767,22.582 C40.767,22.582 22.354,22.582 22.354,22.582 C22.354,22.582 22.354,41.181 22.354,41.181 C22.354,41.181 18.408,41.181 18.408,41.181 C18.408,41.181 18.408,22.582 18.408,22.582 C18.408,22.582 -0.005,22.582 -0.005,22.582 C-0.005,22.582 -0.005,18.598 -0.005,18.598 C-0.005,18.598 18.408,18.598 18.408,18.598 C18.408,18.598 18.408,0.001 18.408,0.001 C18.408,0.001 22.354,0.001 22.354,0.001 C22.354,0.001 22.354,18.598 22.354,18.598 C22.354,18.598 40.767,18.598 40.767,18.598 C40.767,18.598 40.767,22.582 40.767,22.582 Z" id="path-1" class="cls-2" fill-rule="evenodd"/>
</svg>
