<svg xmlns="http://www.w3.org/2000/svg" xmlns:xlink="http://www.w3.org/1999/xlink" preserveAspectRatio="xMidYMid" width="64" height="90" viewBox="0 0 64 90">
  <defs>
    <style>

      .cls-2 {
        fill: #ffffff;
      }
    </style>
  </defs>
  <path d="M36.513,88.283 C35.402,89.696 33.737,90.504 31.944,90.504 C30.141,90.504 28.473,89.689 27.365,88.269 C19.134,77.755 -0.000,51.331 -0.000,33.056 C-0.000,14.821 14.347,-0.012 31.982,-0.012 C49.542,-0.012 63.889,14.820 63.969,33.049 C64.048,51.334 44.796,77.767 36.513,88.283 ZM31.982,2.896 C15.949,2.896 2.907,16.426 2.907,33.056 C2.907,50.424 21.609,76.200 29.653,86.477 C30.761,87.895 33.118,87.897 34.232,86.483 C42.325,76.207 61.137,50.433 61.061,33.063 C60.989,16.428 47.943,2.896 31.982,2.896 ZM31.982,42.168 C26.372,42.168 21.806,37.600 21.806,31.987 C21.806,26.371 26.372,21.804 31.982,21.804 C37.593,21.804 42.162,26.371 42.162,31.987 C42.162,37.600 37.593,42.168 31.982,42.168 ZM31.982,24.714 C27.974,24.714 24.714,27.976 24.714,31.987 C24.714,35.995 27.974,39.258 31.982,39.258 C35.991,39.258 39.251,35.995 39.251,31.987 C39.251,27.976 35.991,24.714 31.982,24.714 Z" id="path-1" class="cls-2" fill-rule="evenodd"/>
</svg>
