<svg xmlns="http://www.w3.org/2000/svg" xmlns:xlink="http://www.w3.org/1999/xlink" preserveAspectRatio="xMidYMid" width="93" height="93" viewBox="0 0 93 93">
  <defs>
    <style>

      .cls-2 {
        fill: #ffffff;
      }
    </style>
  </defs>
  <path d="M15.511,48.767 C15.511,48.767 2.219,48.767 2.219,48.767 C0.994,48.767 0.004,47.776 0.004,46.551 C0.004,45.327 0.994,44.336 2.219,44.336 C2.219,44.336 15.511,44.336 15.511,44.336 C16.736,44.336 17.726,45.327 17.726,46.551 C17.726,47.776 16.736,48.767 15.511,48.767 ZM23.029,26.182 C23.462,26.613 24.029,26.829 24.597,26.829 C25.161,26.829 25.732,26.613 26.162,26.182 C27.027,25.316 27.027,23.911 26.162,23.046 C26.162,23.046 16.764,13.639 16.764,13.639 C15.899,12.774 14.493,12.774 13.628,13.639 C12.763,14.505 12.763,15.907 13.628,16.775 C13.628,16.775 23.029,26.182 23.029,26.182 ZM68.456,26.829 C69.024,26.829 69.591,26.613 70.024,26.182 C70.024,26.182 79.425,16.775 79.425,16.775 C80.287,15.907 80.287,14.505 79.425,13.639 C78.560,12.774 77.154,12.774 76.289,13.639 C76.289,13.639 66.891,23.046 66.891,23.046 C66.023,23.911 66.023,25.316 66.891,26.182 C67.321,26.613 67.888,26.829 68.456,26.829 ZM46.528,17.740 C47.750,17.740 48.740,16.746 48.740,15.523 C48.740,15.523 48.740,2.224 48.740,2.224 C48.740,0.999 47.750,0.008 46.528,0.008 C45.303,0.008 44.309,0.999 44.309,2.224 C44.309,2.224 44.309,15.523 44.309,15.523 C44.309,16.746 45.303,17.740 46.528,17.740 ZM70.024,66.927 C69.155,66.061 67.757,66.061 66.891,66.927 C66.023,67.793 66.023,69.195 66.891,70.061 C66.891,70.061 76.289,79.463 76.289,79.463 C76.725,79.897 77.289,80.113 77.857,80.113 C78.425,80.113 78.992,79.897 79.425,79.463 C80.287,78.598 80.287,77.196 79.425,76.331 C79.425,76.331 70.024,66.927 70.024,66.927 ZM90.833,44.336 C90.833,44.336 77.542,44.336 77.542,44.336 C76.320,44.336 75.327,45.327 75.327,46.551 C75.327,47.776 76.320,48.767 77.542,48.767 C77.542,48.767 90.833,48.767 90.833,48.767 C92.059,48.767 93.049,47.776 93.049,46.551 C93.049,45.327 92.059,44.336 90.833,44.336 ZM68.677,46.551 C68.677,58.771 58.740,68.716 46.528,68.716 C34.310,68.716 24.372,58.771 24.372,46.551 C24.372,34.330 34.310,24.387 46.528,24.387 C58.740,24.387 68.677,34.330 68.677,46.551 ZM64.247,46.551 C64.247,36.775 56.296,28.821 46.528,28.821 C36.753,28.821 28.803,36.775 28.803,46.551 C28.803,56.328 36.753,64.283 46.528,64.283 C56.296,64.283 64.247,56.328 64.247,46.551 ZM23.029,66.927 C23.029,66.927 13.628,76.331 13.628,76.331 C12.763,77.196 12.763,78.598 13.628,79.463 C14.061,79.897 14.628,80.113 15.196,80.113 C15.760,80.113 16.328,79.897 16.764,79.463 C16.764,79.463 26.162,70.061 26.162,70.061 C27.027,69.195 27.027,67.793 26.162,66.927 C25.296,66.061 23.894,66.061 23.029,66.927 ZM46.528,75.366 C45.303,75.366 44.309,76.357 44.309,77.580 C44.309,77.580 44.309,90.878 44.309,90.878 C44.309,92.103 45.303,93.094 46.528,93.094 C47.750,93.094 48.740,92.103 48.740,90.878 C48.740,90.878 48.740,77.580 48.740,77.580 C48.740,76.357 47.750,75.366 46.528,75.366 Z" id="path-1" class="cls-2" fill-rule="evenodd"/>
</svg>
