<svg xmlns="http://www.w3.org/2000/svg" xmlns:xlink="http://www.w3.org/1999/xlink" preserveAspectRatio="xMidYMid" width="82" height="84" viewBox="0 0 82 84">
  <defs>
    <style>

      .cls-2 {
        fill: #ffffff;
      }
    </style>
  </defs>
  <path d="M41.110,83.688 C41.110,83.688 40.764,83.688 40.764,83.688 C29.781,83.688 19.490,79.031 11.790,71.122 C4.087,63.214 -0.104,52.592 -0.012,41.501 C0.175,18.789 18.617,-0.003 41.095,-0.003 C41.095,-0.003 41.445,-0.003 41.445,-0.003 C64.113,1.327 82.407,19.288 82.220,42.184 C82.036,64.894 63.592,83.688 41.110,83.688 ZM41.423,2.654 C41.423,2.654 41.095,2.654 41.095,2.654 C20.054,2.654 2.796,20.265 2.622,41.523 C2.533,51.903 6.459,62.016 13.666,69.417 C20.876,76.820 30.507,80.943 40.786,81.029 C40.786,81.029 41.110,81.031 41.110,81.031 C62.154,81.031 79.415,63.420 79.590,42.163 C79.765,20.731 62.642,3.984 41.423,2.654 ZM57.323,60.139 C56.986,60.139 56.643,60.001 56.388,59.735 C56.388,59.735 40.166,43.072 40.166,43.072 C39.921,42.819 39.786,42.459 39.789,42.110 C39.789,42.110 40.034,12.026 40.034,12.026 C40.044,11.294 40.629,10.625 41.353,10.625 C41.353,10.625 41.362,10.625 41.362,10.625 C42.088,10.625 42.671,11.313 42.668,12.047 C42.668,12.047 42.422,41.622 42.422,41.622 C42.422,41.622 58.261,57.882 58.261,57.882 C58.773,58.404 58.767,59.244 58.246,59.758 C57.992,60.014 57.660,60.139 57.323,60.139 Z" id="path-1" class="cls-2" fill-rule="evenodd"/>
</svg>
